<svg width="320" height="52" viewBox="0 0 320 52" fill="none" xmlns="http://www.w3.org/2000/svg">
<path d="M320 29H0V37H320V29Z" fill="#D51317"/>
<path d="M7.35646 2.93262H2.26355V52H7.35646V2.93262Z" fill="#E30613"/>
<path d="M19.8058 2.93262H14.7129V52H19.8058V2.93262Z" fill="#E30613"/>
<path d="M32.255 2.93262H27.1621V52H32.255V2.93262Z" fill="#E30613"/>
<path d="M44.7044 2.93262H39.0457V52H44.7044V2.93262Z" fill="#E30613"/>
<path d="M57.1537 2.93262H51.4949V52H57.1537V2.93262Z" fill="#E30613"/>
<path d="M69.603 2.93262H63.9442V52H69.603V2.93262Z" fill="#E30613"/>
<path d="M82.0523 2.93262H76.3936V52H82.0523V2.93262Z" fill="#E30613"/>
<path d="M94.5017 2.93262H88.8429V52H94.5017V2.93262Z" fill="#E30613"/>
<path d="M106.951 2.93262H101.292V52H106.951V2.93262Z" fill="#E30613"/>
<path d="M119.4 2.93262H113.742V52H119.4V2.93262Z" fill="#E30613"/>
<path d="M131.85 2.93262H126.191V52H131.85V2.93262Z" fill="#E30613"/>
<path d="M144.299 2.93262H138.64V52H144.299V2.93262Z" fill="#E30613"/>
<path d="M156.748 2.93262H151.09V52H156.748V2.93262Z" fill="#E30613"/>
<path d="M169.198 2.93262H163.539V52H169.198V2.93262Z" fill="#E30613"/>
<path d="M181.647 2.93262H175.988V52H181.647V2.93262Z" fill="#E30613"/>
<path d="M194.096 2.93262H188.438V52H194.096V2.93262Z" fill="#E30613"/>
<path d="M206.546 2.93262H200.887V52H206.546V2.93262Z" fill="#E30613"/>
<path d="M218.429 2.93262H213.336V52H218.429V2.93262Z" fill="#E30613"/>
<path d="M230.879 2.93262H225.786V52H230.879V2.93262Z" fill="#E30613"/>
<path d="M243.328 2.93262H238.235V52H243.328V2.93262Z" fill="#E30613"/>
<path d="M255.777 2.93262H250.684V52H255.777V2.93262Z" fill="#E30613"/>
<path d="M268.226 2.93262H263.133V52H268.226V2.93262Z" fill="#E30613"/>
<path d="M280.676 2.93262H275.583V52H280.676V2.93262Z" fill="#E30613"/>
<path d="M293.125 2.93262H288.032V52H293.125V2.93262Z" fill="#E30613"/>
<path d="M305.574 2.93262H300.481V52H305.574V2.93262Z" fill="#E30613"/>
<path d="M318.024 2.93262H312.931V52H318.024V2.93262Z" fill="#E30613"/>
<path d="M320 0H0V9H320V0Z" fill="#1D1D1B"/>
</svg>
