<svg width="16" height="16" viewBox="0 0 16 16" fill="none" xmlns="http://www.w3.org/2000/svg">
<path d="M8.00012 14.5C9.72403 14.5 11.3773 13.8152 12.5963 12.5962C13.8153 11.3772 14.5001 9.72391 14.5001 8C14.5001 6.27609 13.8153 4.62279 12.5963 3.40381C11.3773 2.18482 9.72403 1.5 8.00012 1.5C6.27621 1.5 4.62291 2.18482 3.40393 3.40381C2.18494 4.62279 1.50012 6.27609 1.50012 8C1.50012 9.72391 2.18494 11.3772 3.40393 12.5962C4.62291 13.8152 6.27621 14.5 8.00012 14.5ZM8.00012 0C10.1219 0 12.1567 0.842854 13.657 2.34315C15.1573 3.84344 16.0001 5.87827 16.0001 8C16.0001 10.1217 15.1573 12.1566 13.657 13.6569C12.1567 15.1571 10.1219 16 8.00012 16C5.87839 16 3.84356 15.1571 2.34327 13.6569C0.842977 12.1566 0.00012207 10.1217 0.00012207 8C0.00012207 5.87827 0.842977 3.84344 2.34327 2.34315C3.84356 0.842854 5.87839 0 8.00012 0ZM6.23137 6.23125C5.25637 7.20625 5.25637 8.79063 6.23137 9.76562C7.20637 10.7406 8.79075 10.7406 9.76575 9.76562C10.0595 9.47188 10.5345 9.47188 10.8251 9.76562C11.1157 10.0594 11.1189 10.5344 10.8251 10.825C9.26262 12.3875 6.73137 12.3875 5.16887 10.825C3.60637 9.2625 3.60637 6.73125 5.16887 5.16875C6.73137 3.60625 9.26262 3.60625 10.8251 5.16875C11.1189 5.4625 11.1189 5.9375 10.8251 6.22812C10.5314 6.51875 10.0564 6.52187 9.76575 6.22812C8.79075 5.25312 7.20637 5.25312 6.23137 6.22812V6.23125Z" fill="white"/>
</svg>
