<?xml version="1.0" encoding="UTF-8"?>
<svg id="Calque_2" data-name="Calque 2" xmlns="http://www.w3.org/2000/svg" viewBox="0 0 1029.68 334.87">
  <defs>
    <style>
      .cls-1 {
        fill: #7798aa;
        stroke: #414f56;
        stroke-miterlimit: 10;
        stroke-width: 4px;
      }
    </style>
  </defs>
  <g id="Calque_1-2" data-name="Calque 1">
    <g>
      <path class="cls-1" d="m138.67,173.62l20.3-15.75,18.2,14c1.75,1.05,2.45,3.5,2.45,5.95,0,5.25-4.9,6.3-7.7,6.3h-26.95v117.25c0,9.45-4.9,22.4-32.2,29.75,0-12.6-10.5-18.9-29.05-26.6-1.4-.35-2.1-1.4-2.1-2.45,0-2.1.7-2.8,2.1-2.8.35,0,.7,0,1.4.35,18.2,3.15,30.45,4.55,36.05,4.55,3.5,0,5.95,0,5.95-6.3v-113.75H4.97l-2.45-10.5h136.15Zm-5.25-149.1l19.95-15.75,18.2,14c1.75,1.05,2.8,3.15,2.8,5.6,0,4.55-3.5,7-8.05,7h-19.95v106.4c0,11.2-9.1,19.25-26.6,20.65-1.75-9.8-14-13.3-29.4-16.1-2.45-.35-3.5-1.75-3.5-3.85l.7-2.45c-8.05,2.45-8.05,1.05-8.05-16.1h-38.5v12.25c0,1.4-1.4,3.15-4.2,4.55-11.2,2.8-13.3,3.15-13.3-5.25V50.76l15.4,10.85h40.6l8.05-11.9,14,9.8c2.1,1.4,2.8,3.85,2.8,5.6-.35,2.1-1.75,4.2-3.85,4.9-2.1,1.05-3.5,2.45-3.5,3.85v59.5c0,4.2-3.5,4.9-7,5.95,4.2,0,23.45,1.05,25.9,1.05,10.5,0,12.95,0,12.95-8.4V35.36H9.17l-2.8-10.85h127.05ZM20.72,198.47l15.4,10.85h44.8l8.05-12.25,14,10.15c2.1,1.4,2.8,3.5,2.8,5.6-.35,2.1-1.75,4.2-3.85,4.9-2.1,1.05-3.5,2.45-3.5,3.85v61.95c0,4.55-1.4,4.9-12.95,8.05-2.8,0-4.55-2.45-4.55-8.05v-11.9h-42.7v14.7c0,1.75-1.4,3.5-4.2,4.9-11.2,2.8-13.3,3.15-13.3-5.6v-87.15Zm17.5,21.35v41.3h42.7v-41.3h-42.7Zm2.8-106.4h38.5v-41.3h-38.5v41.3Zm194.6,86.1c-7,43.75-17.5,69.65-40.95,94.5-18.9,20.65-43.05,34.65-44.45,34.65s-3.15-2.1-3.15-3.5c0-.7.7-1.4,1.4-2.1,18.55-13.3,34.3-30.8,46.55-52.15,21-35.35,29.05-71.05,29.05-149.8l-1.4-16.8,19.6,3.15c4.2.35,7,1.75,7,4.2,0,3.15-.7,3.85-7.7,9.45l-.7,18.2c7.7,70.7,26.6,137.55,86.45,168.35q2.45,4.55-7.35,4.55c-5.95,0-10.15,1.4-12.95,4.9-2.1,2.45-3.85,3.85-5.25,3.85-2.8,0-16.1-14.7-26.95-31.5-18.55-29.05-28-55.3-35.35-95.2l-1.75-10.5-2.1,15.75Zm-33.95-116.55c-11.55,25.9-32.55,54.6-37.45,54.6-1.4,0-2.45-1.05-2.45-2.45,0-1.05.35-2.1,1.05-3.15,28.35-43.75,42.35-95.9,42.35-126.35l19.95,1.4c4.9.35,7,2.1,7,4.9s-1.75,4.9-4.55,4.9-4.2,1.05-4.2,2.45c-4.2,17.85-10.15,36.05-17.5,53.2h90.65l10.5-12.25,13.3,15.05c2.8,2.1,4.55,4.55,4.55,7.35,0,6.65-5.25,6.65-9.45,6.65-3.5,0-5.95,1.05-7.35,2.8-10.5,16.8-20.65,31.5-29.75,43.75-.7.7-1.4,1.05-2.1,1.05-1.4,0-3.5-1.4-3.5-3.5v-1.05c9.45-16.45,16.8-32.9,21.35-49.35h-92.4Z"/>
      <path class="cls-1" d="m507.22,200.22c1.4.7,2.1,2.1,2.1,3.85,0,6.3-4.9,6.65-6.65,6.65-2.45,0-5.25,1.75-6.65,5.25-3.85,7-32.9,51.45-80.85,81.55-18.55,11.55-38.15,21-57.75,28-2.1,0-3.5-2.1-3.5-3.85,0-1.05.35-1.75.7-2.1,69.65-31.5,108.85-76.3,126.35-112h-56.35l-18.9,18.2-3.85,2.8c7,1.05,27.3,9.8,33.25,17.85l2.45,7.7c0,4.2-2.8,6.3-6.65,6.3-1.05,0-1.75,0-5.95-2.8-7-9.45-15.4-19.25-28.7-24.5-14,10.5-33.95,22.4-38.5,22.4-2.1,0-3.15-1.05-3.15-2.8,0-1.4.7-2.45,2.1-3.15,24.85-14.7,49.35-36.05,64.75-67.55l1.05-5.95,18.55,4.2c3.85,1.05,5.95,2.45,5.95,4.9,0,2.8-1.75,5.25-4.9,5.25-4.55,0-5.95,1.4-9.8,6.3h52.85l7-8.05,15.05,11.55Zm-135.8-37.8l-2.45-10.5h53.9v-46.9h-63.7l-2.8-10.85h66.5v-46.55h-3.15l-9.45,8.4c-29.05,22.4-44.45,26.25-45.5,26.25s-2.45-.35-2.45-2.45c0-.7.35-1.75,1.05-2.1,15.05-7.7,29.05-18.2,42-30.8,19.95-19.6,26.6-32.2,32.9-44.1l14.35,8.75c2.45,1.75,3.5,3.15,3.5,4.9,0,4.2-3.5,4.2-9.45,4.2l-15.05,16.1h177.1l21.7-18.2,21,15.75c2.45,2.1,3.85,4.55,3.85,6.65,0,3.85-2.8,6.65-7.35,6.65h-40.95v46.55h20.65l22.05-18.2,22.4,16.8c1.75.7,2.8,2.8,2.8,5.25,0,4.55-3.5,7-8.05,7h-59.85v46.9h7l22.05-18.55,22.4,16.8c1.75,1.05,2.45,3.15,2.45,5.6,0,4.9-4.2,6.65-7.7,6.65h-281.76Zm68.95-68.25h39.9v-46.9h-39.9v46.9Zm0,57.75h39.9v-46.9h-39.9v46.9Zm52.85,123.9l-2.8-10.5h34.65v-82.6l16.1,12.95h44.45v-24.85l19.25,2.8c5.6.7,8.4,2.8,8.4,5.6,0,2.45-1.75,5.25-5.25,6.65-5.25,2.1-5.25,4.9-5.25,9.8h20.3l19.25-15.4,17.5,12.6c2.1,2.1,3.5,4.55,3.5,6.65,0,2.45-1.4,6.65-7,6.65h-53.55v59.15h26.95l19.95-15.75,18.2,14c1.75,1.05,2.8,3.15,2.8,5.25,0,3.85-2.8,7-8.05,7h-59.85v49.35c0,5.95-10.85,7.7-13.65,7.7-2.1,0-3.5-1.05-3.5-3.15v-53.9h-92.4Zm4.55-181.65h37.1v-47.25h-37.1v47.25Zm0,57.75h37.1v-46.9h-37.1v46.9Zm45.15,113.4h42.7v-59.15h-42.7v59.15Zm9.45-171.15h37.1v-47.25h-37.1v47.25Zm37.1,10.5h-37.1v47.25h37.1v-47.25Z"/>
      <path class="cls-1" d="m750.82,111.67c-18.2,28.35-43.05,54.95-47.6,54.95-1.4,0-2.45-1.05-2.45-2.45,0-1.05.7-2.1,1.4-3.5,50.75-59.85,71.05-127.75,75.25-146.3l.35-8.75,19.95,4.55c4.2.7,6.3,2.45,6.3,4.9,0,3.5-2.1,4.9-5.25,4.9-2.8,0-4.55.7-4.9,1.4-7.35,22.4-16.8,44.1-28.35,65.1,8.75,3.15,10.15,3.5,10.15,5.95,0,1.4-1.05,2.8-3.5,3.85-2.45,1.4-3.85,3.15-3.85,4.55v222.25c0,2.1-1.4,3.85-4.2,4.2-11.2,2.8-13.3,3.15-13.3-4.2V111.67Zm143.5-48.65V5.96l18.2,3.15c5.6.7,8.05,2.8,8.05,5.6s-1.75,4.9-4.55,5.6c-2.8.7-4.2,2.8-4.2,5.25v37.45h61.6l22.4-18.55,22.05,16.8c1.75,1.05,2.8,2.8,2.8,5.25,0,4.2-3.15,7-8.05,7h-100.8v67.2h56l11.9-4.2,14.35,12.25c1.75,1.4,2.45,3.15,2.45,4.9,0,4.2-3.15,6.3-6.65,6.3-3.15,0-5.6,1.4-6.3,3.15-11.55,27.3-26.6,53.2-45.15,76.65l-16.1,18.2,17.15,11.9c23.1,15.05,51.8,25.55,86.1,30.8,1.05.35,2.1,1.4,2.1,2.45s-2.8,2.45-7.7,3.15c-4.9.7-8.75,4.2-10.15,8.75-1.4,4.55-3.15,7-4.55,7h-.7c-30.1-9.1-56-22.4-77-39.55l-15.75-14c-52.5,49.35-120.4,59.5-120.4,59.5-1.75,0-2.8-1.75-2.8-3.85,0-1.05.35-1.75,1.4-2.1,40.25-11.9,80.5-34.65,111.3-64.4-14.7-15.75-39.2-42-61.6-106.05h-30.45l-2.45-10.85h87.5v-67.2h-96.25l-2.8-10.5h99.05Zm-47.25,88.55c18.9,49.7,41.3,76.65,63,96.6l17.85-20.65c25.9-35.35,39.2-72.45,40.25-75.95h-121.1Z"/>
    </g>
  </g>
</svg>