<?xml version="1.0" encoding="UTF-8"?>
<svg id="Calque_2" data-name="Calque 2" xmlns="http://www.w3.org/2000/svg" xmlns:xlink="http://www.w3.org/1999/xlink" viewBox="0 0 288.54 458.03">
  <defs>
    <style>
      .cls-1 {
        fill: #302927;
      }

      .cls-1, .cls-2, .cls-3, .cls-4, .cls-5, .cls-6, .cls-7, .cls-8, .cls-9, .cls-10, .cls-11, .cls-12 {
        stroke-width: 0px;
      }

      .cls-2 {
        fill: #be6452;
      }

      .cls-3 {
        fill: #72704c;
      }

      .cls-4 {
        fill: #4c4a49;
      }

      .cls-5, .cls-13 {
        fill: #fdf3e4;
      }

      .cls-6, .cls-14 {
        fill: #f1df95;
      }

      .cls-7 {
        fill: none;
      }

      .cls-8 {
        fill: #f3efd3;
      }

      .cls-9 {
        fill: #8a5c4d;
      }

      .cls-10 {
        fill: #778456;
      }

      .cls-15 {
        clip-path: url(#clippath);
      }

      .cls-11 {
        fill: #ebe8e9;
      }

      .cls-14, .cls-13 {
        stroke: #302927;
        stroke-linejoin: round;
        stroke-width: .54px;
      }

      .cls-12 {
        fill: #bf6f60;
      }
    </style>
    <clipPath id="clippath">
      <rect class="cls-7" width="288.54" height="458.03"/>
    </clipPath>
  </defs>
  <g id="_ƒŒƒCƒ__1" data-name="ƒŒƒCƒ„[_1">
    <g class="cls-15">
      <g>
        <path class="cls-9" d="m75.33,441.48s-16.14,17.05-19.59,24.48h35.73l-16.14-24.48Z"/>
        <rect class="cls-6" x="57.32" y="456.74" width="19.54" height="1.63" transform="translate(-392.48 508.98) rotate(-88.04)"/>
        <rect class="cls-6" x="59.49" y="455.72" width="19.54" height="1.63" transform="translate(-389.37 510.17) rotate(-88.04)"/>
        <rect class="cls-6" x="64.51" y="455.38" width="19.54" height="1.63" transform="translate(-386.15 496.68) rotate(-85.78)"/>
        <rect class="cls-6" x="66.75" y="455.58" width="19.54" height="1.63" transform="translate(-384.27 499.13) rotate(-85.78)"/>
        <polygon class="cls-12" points="147.9 296.56 164.34 287.85 167.17 305.03 157.35 384.2 148.63 396.6 129.61 435.14 116.35 441.53 92.54 436.98 111.93 407.28 115.74 373.4 123.35 321.97 147.9 296.56"/>
        <path class="cls-3" d="m136.48,412.55s3.1-1.11,16.26-.52l-1.84,25.15-2.79,10.74-8.9,9.34-28.23-2.65-24.49-8.46-9.48-5.44s6.47-7.79,11.76-9.12l12.94,3.38s11.32.15,16.91-.74c0,0,8.6-8.6,13.38-14.85l4.48-6.83Z"/>
        <path class="cls-10" d="m156.79,362.48s-5.88,12.72-7.23,17.41c0,0,6.6,1.27,7.87,1.11l-.64-18.52Z"/>
        <path class="cls-9" d="m203.16,271.26s4.91,8.48,5.58,23.59c.67,15.11.67,28.05.67,28.05,0,0,1.82,24.2,2.59,30,.76,5.8,1.06,10.12,1.06,10.12l-27.61,21.43-26.79-.82-1.34-.97-.59-33.19,2.53-30.81,3.87-26.87,4.39-27.98,17.86,1.27,17.79,6.18Z"/>
        <path class="cls-1" d="m171.45,371.76s18.05-11.63,41.22-13.25c0,0,2.76,17.48,3.66,20.41.9,2.93,4.96,19.35,4.96,19.35l4.88,26.83s5.61,25.61,8.78,32.69l1.63,4.55H86.81l-5.77-3.69s-6.02-6.8-7.56-13.06l6.58-6.42s2.85-1.14,4.88.16c3.43,2.19,6.93,4.24,10.59,6.02,8.38,4.08,17.04,7.53,26.39,8.42,5.97.57,12.82.22,18.01-3.1,4.63-2.96,6.98-7.8,8.35-12.96,2.57-9.69,3.69-19.97,2.68-29.97l21.76-25.75-1.26-10.23Z"/>
        <path class="cls-6" d="m174.62,337.81l-.53-1.52c.16-.09,15.98-9.14,35.68-7.61l-.13,1.63c-19.19-1.5-34.86,7.41-35.02,7.5Z"/>
        <path class="cls-6" d="m174.08,341.14l-.69-1.48c.79-.45,19.34-10.86,36.57-8.11l-.26,1.61c-16.66-2.66-35.44,7.87-35.63,7.98Z"/>
        <path class="cls-6" d="m173.4,344.55l-.51-1.56c.82-.45,20.3-10.97,37.32-8.9l-.2,1.62c-16.5-2.01-36.41,8.74-36.61,8.84Z"/>
        <path class="cls-6" d="m172.42,353.45l-.61-1.58c.85-.5,20.99-12.12,39.12-10.31l-.16,1.62c-17.6-1.75-38.14,10.15-38.34,10.27Z"/>
        <path class="cls-6" d="m172.1,356.77l-.55-1.53c.2-.12,20.01-12.15,39.59-11.35l-.07,1.63c-19.06-.78-38.78,11.13-38.98,11.25Z"/>
        <path class="cls-6" d="m171.84,360.44l-.49-1.62c.2-.13,20-13.06,39.85-12.47l-.05,1.63c-.43-.01-.87-.02-1.3-.02-18.88,0-37.82,12.35-38.01,12.47Z"/>
        <path class="cls-6" d="m171.76,366.36l-.67-1.52c.19-.11,18.62-10.74,40.91-11.94l.09,1.63c-21.88,1.18-40.14,11.72-40.33,11.83Z"/>
        <path class="cls-6" d="m171.83,369.35l-.85-1.4c.2-.12,19.78-11.86,41.35-12.79l.07,1.63c-21.15.91-40.38,12.44-40.57,12.56Z"/>
        <path class="cls-6" d="m172.01,372.1l-.79-1.43c1.05-.58,25.95-14.19,41.63-12.84l-.14,1.63c-15.18-1.29-40.45,12.5-40.7,12.64Z"/>
        <path class="cls-6" d="m185.69,293.22l-.23-1.67c.56-.17,13.78-4.09,23.11-1.86l-.38,1.59c-8.9-2.13-22.36,1.9-22.49,1.94Z"/>
        <path class="cls-6" d="m184.56,296.35l-.13-1.66c.58-.19,14.24-4.56,24.3-2.42l-.34,1.6c-9.63-2.05-23.69,2.44-23.83,2.48Z"/>
        <path class="cls-6" d="m183.64,299.19l-.22-1.64c.66-.2,16.29-4.93,25.53-2.4l-.43,1.57c-8.8-2.4-24.73,2.42-24.89,2.47Z"/>
        <path class="cls-6" d="m181.2,307.54l-.43-1.62c.54-.32,13.47-7.68,28.55-3.77l-.41,1.58c-14.45-3.74-27.58,3.74-27.71,3.82Z"/>
        <path class="cls-6" d="m180.23,311.12l-.26-1.73c.56-.35,13.81-8.38,29.28-4.1l-.44,1.57c-14.77-4.09-28.45,4.18-28.58,4.26Z"/>
        <path class="cls-6" d="m179.47,314.51l-.39-1.6c.58-.35,14.23-8.3,30.21-5.05l-.33,1.6c-15.38-3.13-29.35,4.97-29.49,5.05Z"/>
        <path class="cls-6" d="m177.47,322.55l-.29-1.71c.63-.37,15.39-8.86,32.2-5.33l-.34,1.6c-16.17-3.39-31.42,5.36-31.57,5.44Z"/>
        <path class="cls-6" d="m176.92,325.36l-.29-1.66c.72-.36,17.62-8.77,32.94-5.43l-.35,1.6c-14.76-3.22-32.13,5.4-32.3,5.49Z"/>
        <path class="cls-6" d="m176.18,328.8l-.22-1.68c.75-.36,18.64-8.88,33.49-6.18l-.29,1.61c-14.33-2.59-32.79,6.17-32.97,6.25Z"/>
        <path class="cls-6" d="m190.81,279.72l-.45-1.57c.32-.09,7.83-2.2,15.2-1.51l.12,1.64c-7.05-.67-14.79,1.41-14.87,1.44Z"/>
        <path class="cls-6" d="m189.44,283.17l-.47-1.56c.46-.14,11.31-3.4,17.63-2.39l-.26,1.61c-5.96-.95-16.79,2.31-16.9,2.34Z"/>
        <path class="cls-6" d="m188.13,286.54l-.19-1.67c.43-.15,10.62-3.71,19.26-3.2l-.09,1.63c-8.32-.47-18.88,3.21-18.98,3.24Z"/>
        <path class="cls-6" d="m174.97,331.99c-4-18.01,12.77-64.05,13.48-65.97l1.53.56c-.17.46-16.32,43.43-13.66,61.28l-1.35,4.13Z"/>
        <path class="cls-6" d="m180.08,312.01l-1.53,2.8c-1.21-8.98,11.57-46.34,12.07-47.86l1.55.51c-.12.37-11.66,31.84-12.09,44.56Z"/>
        <path class="cls-6" d="m160.83,382.24c-4.49-58.78,13.66-116.41,13.84-116.98l1.55.5c-.18.57-18.24,57.91-13.77,116.36l-1.63.12Z"/>
        <path class="cls-6" d="m163.92,382.6c-4.49-58.78,13.66-116.41,13.84-116.98l1.55.5c-.18.57-18.24,57.91-13.77,116.36l-1.63.12Z"/>
        <path class="cls-6" d="m167,382.6c-4.49-58.78,13.66-116.41,13.84-116.98l1.55.5c-.18.57-18.24,57.91-13.77,116.36l-1.63.12Z"/>
        <path class="cls-3" d="m32.17,328.41s5.17,10.7,5.62,24.39c.45,13.69,4.99,33.82,4.99,33.82,0,0,9.43,22.85,13.51,27.11,4.08,4.26,5.08,7.16,5.08,7.16l5.53,1.9s21.49-1.63,25.75.36c4.26,2,9.07,6.44,9.07,6.44,0,0-.18,5.26-1.09,5.35-.91.09-11.97-3.54-13.15-3.17-1.18.36-24.39,17.32-24.39,17.32l-38.45,4.62-23.39-9.52h-6.08v-103.01l20.49-10.25,16.5-2.54Z"/>
        <path class="cls-9" d="m87.58,175.87l-6.08,1.92s-7.66-3.06-16.15-2.82c0,0-14.53.14-20.68,2.23-6.15,2.1-13.26,3.68-18.48,5.81-5.22,2.13-14.7,6.56-14.7,6.56l-12.71,7.08-6.7,5.67v97.52l23.41,26.11,76.53-121.87-4.43-28.23Z"/>
        <path class="cls-6" d="m15.78,289.59c-1.34-57.74-18.34-86.79-18.51-87.07l1.4-.84c.17.29,17.39,29.71,18.75,87.87l-1.63.04Z"/>
        <path class="cls-6" d="m13.06,291.4c-1.34-57.74-18.34-86.79-18.51-87.08l1.4-.84c.17.29,17.39,29.71,18.75,87.87l-1.63.04Z"/>
        <path class="cls-6" d="m11.01,294.81c-1.34-57.74-18.34-86.79-18.52-87.08l1.4-.84c.17.29,17.39,29.71,18.75,87.87l-1.63.04Z"/>
        <path class="cls-6" d="m6.96,300.28l-1.63-.07c1.34-32.36-8.92-56.2-9.02-56.44l1.5-.65c.11.24,10.51,24.41,9.16,57.16Z"/>
        <path class="cls-6" d="m3.78,300.28l-1.63-.07c1.34-32.36-8.92-56.2-9.02-56.44l1.5-.65c.11.24,10.51,24.41,9.16,57.16Z"/>
        <path class="cls-6" d="m25.68,268.18l-1.59,2.93c.54-47.91-15.29-79.59-15.45-79.9l1.45-.75c.16.31,16.13,29.38,15.58,77.72Z"/>
        <path class="cls-6" d="m22,260.73c-3.91-45.61-16.63-67.62-16.76-67.84l1.41-.83c.13.22,13.04,22.51,16.99,68.53l-1.63.14Z"/>
        <path class="cls-6" d="m21.51,279.05c-4.33-60.82-18.71-84.25-18.86-84.47l1.36-.9c.6.91,14.66,22.39,19.02,83.63l-1.53,1.74Z"/>
        <rect class="cls-6" x="8.12" y="267.83" width="39.68" height="1.63" transform="translate(-240.66 240.38) rotate(-78.05)"/>
        <path class="cls-6" d="m32.49,232.04c-2.72-24.28-10.92-46.55-11-46.77l1.53-.57c.08.22,8.35,22.68,11.1,47.16l-1.62.18Z"/>
        <path class="cls-6" d="m29.92,234c-1.94-22.52-11.11-47.49-11.2-47.74l1.53-.57c.09.25,9.33,25.43,11.29,48.16l-1.63.14Z"/>
        <path class="cls-6" d="m28.54,237.97c-3.11-25.85-12.29-50.28-12.38-50.52l1.53-.58c.09.25,9.35,24.86,12.48,50.91l-1.62.19Z"/>
        <path class="cls-6" d="m51.22,222.86l-1.59-.35c4.45-20.07,1.69-46.17,1.67-46.43l1.62-.18c.03.26,2.81,26.62-1.7,46.96Z"/>
        <path class="cls-6" d="m49.54,221.4l-1.61-.29c3.55-19.68-.1-44.24-.13-44.49l1.61-.25c.04.25,3.73,25.07.12,45.02Z"/>
        <path class="cls-6" d="m47.35,221.86l-1.62-.16c3.05-30.52-1.21-44.16-1.26-44.29l1.55-.5c.18.56,4.41,14.1,1.33,44.96Z"/>
        <path class="cls-6" d="m42.18,224.36h-1.63c0-34.52-5.27-44.25-5.33-44.35l1.42-.81c.23.39,5.54,10.04,5.54,45.16Z"/>
        <path class="cls-6" d="m38.61,224.28c-1.78-32.21-6.36-43.34-6.4-43.45l1.5-.64c.19.45,4.73,11.5,6.53,43.99l-1.63.09Z"/>
        <path class="cls-6" d="m37.53,226.69h-1.63c.13-30.17-7.33-44.23-7.4-44.37l1.43-.78c.32.58,7.73,14.51,7.6,45.15Z"/>
        <path class="cls-6" d="m33.88,282.55l-1.43-.78c5.99-11.05,9-24.28,9.03-24.41l1.59.36c-.03.13-3.09,13.57-9.19,24.83Z"/>
        <path class="cls-6" d="m30.35,285.72l-1.44-.76c4.93-9.29,10.22-28.25,10.27-28.44l1.57.44c-.22.78-5.39,19.33-10.4,28.77Z"/>
        <path class="cls-6" d="m27.05,287.22l-1.46-.73c8.23-16.31,11.21-31.98,11.24-32.14l1.6.3c-.03.16-3.05,16.05-11.39,32.58Z"/>
        <path class="cls-6" d="m78.45,199.28l-1.62-.16c.67-6.71,1.75-21.86,1.77-22.01l1.63.12c0,.15-1.1,15.32-1.77,22.06Z"/>
        <path class="cls-6" d="m70.67,217.92l-1.57-.46c6.15-20.99,6.36-40.92,6.36-41.12h1.63c0,.21-.21,20.36-6.42,41.58Z"/>
        <path class="cls-6" d="m59.85,226.25l-1.43-.8c10.24-18.35,8.22-49.96,8.2-50.28l1.63-.11c.09,1.32,2.07,32.42-8.4,51.19Z"/>
        <path class="cls-6" d="m57.87,225.16l-1.49-.66c9.65-21.66,7.52-49.09,7.5-49.37l1.63-.13c.02.28,2.18,28.13-7.64,50.17Z"/>
        <path class="cls-6" d="m56.79,223.52l-1.56-.5c8.4-26.4,4.42-47.53,4.38-47.74l1.69-.18c.04.21,4.02,21.6-4.51,48.41Z"/>
        <g>
          <g>
            <path class="cls-13" d="m41.82,221.09c-10.53,3.81-15.98,15.43-12.17,25.96,3.81,10.53,15.43,15.98,25.96,12.17,10.53-3.81,15.98-15.43,12.17-25.96-3.81-10.53-15.43-15.98-25.97-12.17Z"/>
            <path class="cls-14" d="m38.08,248.89c2.71,3.31,6.85,5.18,11.14,5.03l-2.9-8.01-8.24,2.98Z"/>
            <path class="cls-14" d="m59.85,232.05c-2.69-3.69-7.07-5.81-11.62-5.65l3.15,8.71,8.47-3.06Z"/>
            <path class="cls-14" d="m40.3,229.27c-3.6,2.79-5.61,7.22-5.32,11.78l8.47-3.06-3.15-8.71Z"/>
            <path class="cls-14" d="m57.14,251.05c3.4-2.62,5.38-6.71,5.34-10.99l-8.24,2.98,2.9,8.01Z"/>
          </g>
          <path class="cls-1" d="m53.1,241.2l1.05.02.06-.46-2.78-.72,1.11.97-2.5.71,1.59-2.7-1.19-.1.21.35-.33.43-.09-3.31-.61-.91s-.96-.16-1.12.17c-.16.33-3.21,1.67-3.21,1.67l-.51-.1,2.56-2.45s-.18-.67-1.2-.96l-2.23,4.01,1.97,2.91-1.5.69,1.04.52.67-.91,1.28-.54-3.4,4.14,1.46-.55,1.72-2.12s.21,1.12-.08,2.19c-.29,1.06.85,1.12.85,1.12,0,0,5.5-.6,6.77-3.41l-1.59-.67Zm-3.35-2.5l-1.36.77-.47-.97,1.44-.92.29.3.1.81Zm-.46-2.74l.08,1.22-1.64.66-.51-.83,2.06-1.05Zm-3.6,3.15l-.89-1.08,1.91-.72.52.96-1.53.83Zm.9,1.26l-.65-.82,1.41-.69.37.75-1.13.76Zm1.2,3.69v-1.18s.62-1.09.62-1.09l-.28-.8,1.75-1.71.05.68-1.18,2.67.87.03c1.04-.75,3.06-1.07,3.06-1.07-.87,2.6-4.88,2.46-4.88,2.46Z"/>
        </g>
        <path class="cls-9" d="m117.15,173.37l1.14,3.22-8.27,24.94-15.79,34.03-17.05,31.25-19.45,34.22-21.15,25.26-3.03,2.34s-13.51,21.78-15.72,28.22c0,0-7.77,16.8-9.28,21.72-1.52,4.93-5.49,15.85-6.76,20.65-1.26,4.8-3.28,14.08-3.28,14.08l-2.08-2.53v-77.22l19.06-27.2,9.07-15.6,5.08-5.44s12.24-16.64,15.78-22.21c3.54-5.58,20.54-34.68,25.16-45.16,4.62-10.47,11.29-34.14,11.29-34.14l.95-3.81.48-1.27v-1.53s10.29-2.59,13.11-3.32c2.82-.73,13.26-2.03,13.26-2.03,0,0,4.59-.41,5.5-.12.91.29,2,1.62,2,1.62Z"/>
        <path class="cls-1" d="m238.49,467.61c-2.66-5.25-4.94-11.29-7.18-19-3.52-12.14-5.86-24.77-8.12-36.99l-.47-2.57c-.89-4.84-1.82-9.85-2.97-14.71-.66-2.78-1.42-5.59-2.16-8.3-1.23-4.55-2.51-9.26-3.36-14-1.99-10.98-3.51-22.94-4.65-36.58-.67-8-.8-16.09-.92-23.91-.08-4.99-.16-10.15-.38-15.23-.46-10.72-1.98-17.95-5.48-24.03l1.5.51c2.85,5.26,4.59,12.58,5.07,23.48.22,5.1.3,10.27.38,15.26.12,7.8.25,15.87.92,23.84,1.14,13.6,2.66,25.53,4.64,36.47.85,4.69,2.12,9.38,3.34,13.91.74,2.72,1.5,5.54,2.17,8.34,1.16,4.89,2.09,9.91,2.98,14.76l.47,2.57c2.26,12.19,4.6,24.79,8.1,36.88,2.21,7.65,4.47,13.62,7.1,18.81l-.97.49Z"/>
        <path class="cls-5" d="m134.9,145.88s3.81,18.23-.27,23.67-11.7,7.62-11.7,7.62l-16.87,45.7-29.92,56.04-29.92,46.79-5.99,26.66,3.26,41.62,9.79,19.31,6.8,6.53s8.7,4.08,15.5,1.09c6.8-2.99,33.73-27.2,33.73-27.2l14.42-78.61,35.63-37,6.53-4.9,2.18-7.07.53-.95s7.01.24,11.25,1.09c4.25.84,7.21,1.33,13.04,2.92l9.2,3.01s7.49,2.31,9.06,2.53,9.07,1.8,15,.96c5.94-.84,9.54-4.38,13.24-9.98,3.7-5.59,3.63-11.8,3.63-11.8l1.05-7.65s2.51-6.78,3.84-8.13c1.33-1.35,4.16-7.4,4.16-7.4,0,0,.48-3.01.46-3.52-.02-.5-.75-5.04-.07-5.97,0,0,1.31.73,2.73.66,1.42-.07,2.87-.61,3.72-2.36.85-1.75.71-4.1.71-4.1,0,0-.17-5.17-.43-5.8-.26-.63-.75-4.28-.75-4.28l-.57-2.81,2.14-8.41s.85-7.2.75-8.29c-.1-1.1-.35-7.45-1.3-9.39-.95-1.94-2.12-5.83-3.14-7.02-1.02-1.2-1.92-2.96-1.92-2.96l-.75-5.83,1.82-4.48,1.52-2.86s.67-2.74.17-5.48l-.65-2.65-.65-1.57-2.32-5.12-1.97-6.28-2.88-6.8-2.4-4.49-5.35-6.21-67.71-23.71-38.36,54.86Z"/>
        <path class="cls-1" d="m165.35,265.18s-58.9,22.9-72.36,85.46c-13.46,62.57-29.71,69.73-29.71,69.73l4.72-6.12s-40.72-49.64-1.22-109.76c39.5-60.12,56.28-104.51,59.6-133,0,0-4.19,3.32-8.21,4.19,0,0-16.36,43.99-41.75,87.88-25.39,43.89-43.52,66.01-43.52,66.01,0,0,.54,7.25-2,15.23-2.54,7.98-6.53,45.52-5.44,52.77,0,0,31.37,29.56,52.95,27.2,21.58-2.36,22.67,9.79,22.67,9.79,0,0,22.67-15.19,22.67-43.52-.54-14.78-.66-30.72,2.58-45.19,3.63-16.21,11.79-33.36,24.19-44.72,3.34-3.06,7.48-5.62,11.86-6.93l1.71-7.59,2.56-12.4,1.98-9.07-3.27.02Z"/>
        <path class="cls-8" d="m169.31,249.92s4.62,10.76,15.92,17.23l2.75.71,7.79,2.21,8.1,2.78,6.59,1.71s7.35,1.3,9.45,1.28c2.1-.02,6.44-.2,6.44-.2,0,0,4.92-.7,9.1-4.51,4.18-3.81,6.41-10.91,6.41-10.91l1.66-9.27s.32-3.95-4.06-5.11c-7.62-2.01-13.02,6-18.68,9.59-6.18,3.92-13.51,6.14-20.77,6.74-7.31.61-14.62-1.09-21.05-4.61-2.33-1.28-4.51-2.77-6.51-4.51l-2.01-2.18-1.43-1.7.32.74Z"/>
        <path class="cls-2" d="m257.17,152.35s-2.7,5.19-8.97,11.51l-1.19,2.38s-1.51,1.3-6.11,1.89c0,0,.54,1.3.49,3.24l2.59,2.38s4.97.22,11.18-5.89l-.74-1.36v-2.92l-.23-.93s-.5-1.55.39-3.29c.89-1.74,1.95-4.14,1.95-4.14l.58-2.03.05-.83Z"/>
        <path class="cls-11" d="m251.52,163.21c-.51-.22-1.05-.12-1.57.15-1.75.9-3.38,3.8-3.38,3.8l-.89.92-2.36,1.81.02,1.89.99-.33,3.09-.25s1.9-.63,2.82-1.13c.93-.5,1.9-1.39,1.9-1.39l.17-.13.11-.09.13-.09.41-.33.49-.64s.44-.87.54-1.7c.1-.84-.26-1.54-2.47-2.49Z"/>
        <path class="cls-4" d="m252.28,168.57s-1.04,1.27-2.93,2.13c-.93.43-2.05.75-3.16.86-.28.03-.55.05-.83.06-.27.01-.55-.01-.76.01-.22.02-.44.08-.63.17-.05.02-.1.04-.14.07-.07.04-.18.1-.27.17-.18.14-.41.36-.61.53l-.09-2.84s.14-.03.32-.03c.18,0,.32,0,.32.02v1.66s.03-.01.03-.01h.03c.06-.04.12-.07.18-.09.25-.1.52-.17.8-.19.3-.02.54.02.8.01.26,0,.52,0,.79-.02,1.06-.07,2.14-.33,3.06-.7,1.86-.74,3.02-1.88,3.07-1.81Z"/>
        <g>
          <path class="cls-7" d="m127.43,100.99c.31-.39.64-.78.99-1.15-.02-2.59,1.08-5.16,1.08-5.16-1.39,1.57-1.9,4.63-2.08,6.32Z"/>
          <path class="cls-7" d="m127.58,97.33c-.71,1.45-.97,3.55-1.06,4.9.22-.33.45-.66.69-.98-.14-1.94.37-3.91.37-3.91Z"/>
          <path class="cls-7" d="m125.54,103.97c.22-.46.46-.91.73-1.34-.23-1.66.07-3.62.07-3.62-.48.64-.7,3.21-.8,4.96Z"/>
          <path class="cls-7" d="m128.59,99.66c.22-.23.44-.46.67-.68.47-1.95,1.31-3.81,1.31-3.81-1.2,1.33-1.75,3.36-1.97,4.5Z"/>
          <path class="cls-7" d="m130.04,98.26s.7-.46.7-.49c0-.81,1.43-3.84,1.43-3.84-.9.9-1.73,2.84-2.32,4.51.07-.06.13-.12.2-.18Z"/>
          <path class="cls-5" d="m107.58,71.56c1.47.45,2.7,1.48,4.19,1.83.84.2,1.54.07.75-.81-1.23-1.38-5.44-2.11-7.68-2.42-.24.31-.48.61-.72.92,1.17-.05,2.36.14,3.46.48Z"/>
          <path class="cls-1" d="m259.4,107.93s-1.36-3.04-4.58-4.99c0,0,2.72,1.31,4.62,3.9,0,0-1.18-2.49-4.17-4.31,0,0,2.18.59,4.04,2.86,0,0-1.18-2.86-6.35-4.85,0,0,2.9.36,6.12,3.45,0,0-2.63-2.95-6.26-4.53,0,0,3.26.41,6.21,3.49,0,0-2.04-2.81-6.21-4.4,0,0,4.35,1.22,6.3,3.63,0,0-1.5-2.77-6.57-4.31,0,0,3.22.54,6.21,2.77,0,0-1.63-1.86-6.16-3.72,0,0,2.86.41,6.08,2.77,0,0-2.13-2.49-6.26-3.54,0,0,3.08.27,5.35,2.04,0,0-1.86-2.09-5.17-2.86,0,0,2.36.51,3.99,1.05-1.23-.71-3.95-2.16-6.58-2.77,0,0,4.76.77,6.85,2.04,0,0-3.4-2.18-8.3-3.04,0,0,4.44.05,7.57,1.9,0,0-2.95-2.22-8.39-2.63,0,0,3.85-.18,8.12,1.59,0,0-3.49-2-8.02-2.45,0,0,3.81-.14,7.34,1.5,0,0-2.45-1.81-7.75-2.27,0,0,3.72-.18,7.03,1.13,0,0-3.22-1.86-10.2-2.27,0,0,3.31-.54,9.88,1.32,0,0-5.98-2.45-11.42-2.27,0,0,5.26-.68,10.97,1.41,0,0-2.81-1.95-11.79-2.31,0,0,4.22-.95,10.83,1.22,0,0-3.63-2.04-10.65-2.22,0,0,4.26-.54,9.7,1,0,0-4.17-2.13-10.88-1.54,0,0,4.53-1.13,10.52.5,0,0-4.44-2.13-12.33-1.18,0,0,5.67-1.36,11.52.09,0,0-5.17-1.9-11.83-.91,0,0,5.17-1.32,11.61.41,0,0-4.85-2.22-12.47-1.31,0,0,4.44-1.45,11.11.23,0,0-3.63-1.99-12.2-.95,0,0,3.63-2.04,11.97.27,0,0-5.21-2.67-13.15-.95,0,0,4.12-1.9,12.65.04,0,0-3.85-1.63-9.84-1.22,0,0,3.99-.77,9.34.54,0,0-5.03-2.36-14.05-.73,0,0,4.99-2,12.6-.5,0,0-4.53-1.72-11.97-.68,0,0,4.71-1.27,9.84-.68,0,0-4.94-1.59-11.47.09,0,0,5.26-2,10.97-.82,0,0-3.58-1.59-9.61-.32,0,0,3.67-1.32,8.57-.73,0,0-4.17-1.27-10.2.41,0,0,3.9-1.86,9.79-1.18,0,0-5.85-1.27-11.33.77,0,0,4.17-1.95,10.56-1.63,0,0-6.39-1.22-12.69,1.31,0,0,4.26-2.49,12.11-1.95,0,0-6.08-1.36-12.42,1.04,0,0,4.35-2.36,11.83-1.81,0,0-5.67-1.22-12.29,1.13,0,0,4.31-2.49,11.65-1.68,0,0-5.58-1.45-11.74.91,0,0,2.45-1.95,10.88-2,0,0-4.49-1.13-11.47,1.32,0,0,3.9-2.09,11.15-2.18,0,0-4.4-.68-10.11,1.13,0,0,2.76-1.45,8.75-1.77,0,0-5.17-.32-9.97,1.18,0,0,1.9-1.5,9.11-1.68,0,0-5.31-.91-10.7,1.22,0,0,2.54-1.9,9.11-1.9,0,0-4.13-.73-9.84,1.13,0,0,2.63-1.45,8.43-2,0,0-4.58-.45-11.06,2.22,0,0,2.13-1.86,10.02-2.95,0,0-5.03-.14-10.29,2.27,0,0,1.95-1.81,9.2-2.81,0,0-3.81-.36-9.66,2,0,0,2.95-2,8.52-2.58,0,0-2.86-.36-9.29,1.9,0,0,2.54-1.59,8.79-2.54,0,0-3.72-.23-11.56,2.77,0,0,4.22-2.45,10.79-3.36,0,0-2.27-.45-10.29,2.4,0,0,2.77-2.04,9.34-2.86,0,0-5.98-.05-12.01,3.22,0,0,3.9-3.35,11.65-3.67,0,0-5.08-.45-10.43,2.18,0,0,3.04-2.04,9.29-2.81,0,0-4.67-.59-13.69,3.99,0,0,4.26-3.58,11.2-4.4,0,0-4.85-.46-11.51,3.76,0,0,3.37-3.21,10.35-4.38,0,0-5.56.04-11,3.9,0,0,2.92-3.21,10.56-4.59,0,0-5.36.32-11.12,3.82,0,0,2.31-2.4,8.73-4.02,0,0-3.57.28-7.27,2.27,0,0,1.95-1.87,6.86-2.8,0,0-4.83-.24-10.11,4.38,0,0,3.17-4.06,8.65-4.71,0,0-3.53-.33-8.61,3.25,0,0,2.15-2.19,6.13-3.41,0,0-2.56.08-6.17,2.76,0,0,1.95-2.31,6.41-3.37,0,0-2.84.16-6.94,2.8,0,0,1.22-1.67,5.24-2.96,0,0-2.88.33-6.74,3.29,0,0,1.79-2.27,5.93-3.78,0,0-3.49.49-6.98,3.82,0,0,1.71-2.68,6.25-4.18,0,0-2.84.57-6.01,3,0,0,1.54-2.23,5.4-3.29,0,0-1.79.08-4.51,1.87,0,0,.85-1.34,3.78-2.27,0,0-2.8.12-5.93,3.29,0,0,1.58-2.56,4.75-3.53,0,0-2.36.08-4.79,2.84,0,0,1.06-2.15,4.02-3.09,0,0-2.4.24-4.55,2.52,0,0,1.06-1.95,4.1-2.92,0,0-2.07.2-3.57,1.54,0,0,.61-1.18,2.23-1.91,0,0-2.44.49-3.9,3.41,0,0-1.34-3.94-5.28-5.81,0,0,2.8,1.71,3.57,5.32,0,0-2.64-5.08-6.17-6.58,0,0,2.56,2.03,4.14,4.3,0,0-4.35-3.98-5.36-4.51l4.95,5.4-5.2-4.79,4.18,4.95s-4.59-5.12-6.46-5.93l2.4,2.76-3.21-2.19,3.37,3.49-3.98-2.76,2.64,2.68s-2.68-2.15-3.61-2.4c0,0,1.62-1.06,2.48-2.27,0,0-1.99,1.42-2.92,1.75l2.19-2.11-2.92,1.38,2.88-2.4-3.13,1.67,2.52-2.36s-2.76,1.95-5.08,2.6c0,0,3.45-1.87,4.51-3.33,0,0-2.96,2.11-5.4,2.88,0,0,3.74-1.83,4.83-3.74,0,0-2.23,1.91-3.9,2.64,0,0,2.68-2.19,3.65-3.41,0,0-2.56,2.07-4.55,3,0,0,3.45-2.6,4.3-4.1,0,0-3.41,3.45-6.17,3.9,0,0,4.18-2.11,5.68-4.18,0,0-4.18,3.04-5.48,3.53,0,0,3.86-2.52,5.32-4.75,0,0-4.39,3.94-7.47,4.71,0,0,4.48-2.06,6.58-5.33,0,0-3.83,3.79-7.27,4.74,0,0,5.69-3.09,7.16-6.25,0,0-3.68,3.9-7.23,5.3,0,0,4.81-2.88,5.79-5.19,0,0-4.18,4-6.63,4.84,0,0,4.91-3.44,6.14-6,0,0-3.61,3.9-6.42,5.12,0,0,4.6-3.16,5.62-5.65,0,0-4.46,4.77-8.18,5.97,0,0,5.62-2.77,7.47-7.19,0,0-4.14,5.41-7.93,6.42,0,0,5.9-3.65,7.23-7.62,0,0-2.74,4.04-6.39,6.35,0,0,4.28-3.62,5.47-6.25,0,0-3.26,3.76-6.49,5.72,0,0,4.25-3.3,5.54-6.84,0,0-3.47,4.74-6.63,6.77,0,0,4.46-4.04,5.23-7.3,0,0-3.44,5.26-6.35,7.05,0,0,4.67-4.49,5.09-7.44,0,0-2,4.11-5.72,6.91,0,0,3.93-4.42,4.21-7.62,0,0-1.93,4.6-4.63,7.09,0,0,3.16-3.97,3.16-7.48,0,0-1.23,4.6-4.6,7.9,0,0,3.75-4.81,3.65-8.28,0,0-1.83,5.9-5.58,8.88,0,0,4-4.81,4.49-8.95,0,0-1.54,4.35-3.54,6.63,0,0,2.42-4.18,2.28-6.81,0,0-.95,4.46-3.33,7.26,0,0,2.6-4.28,2.53-7.54,0,0-.53,3.54-3.4,7.09,0,0,2.77-4.21,1.51-7.12,0,0,.53,4.32-2.84,7.76,0,0,2.95-5.16,2-7.9,0,0,.14,3.4-2.32,7.19,0,0,2.11-4.21,1.3-6.98,0,0,.14,3.4-2.11,6.49,0,0,2.07-4.6.77-7.37,0,0,.46,3.37-.91,6.04,0,0,.77-4.04-.21-6,0,0,.7,3.97-1.09,7.48,0,0,1.4-5.19-.14-7.62,0,0,.95,4.98-1.12,8.67,0,0,2.04-6.14.14-8.81,0,0,1.12,5.58-1.51,9.2,0,0,2.67-6.39.53-9.06,0,0,1.47,3.12-1.19,8.74,0,0,1.93-5.54-.1-8.74,0,0,1.72,4.42-1.09,9.62,0,0,2.14-6.04.25-9.48,0,0,1.62,3.72-1.19,9.09,0,0,2.46-6.49.25-8.99,0,0,1.65,3.58-1.05,8.81,0,0,2.28-5.72.18-9.16,0,0,1.51,5.09-1.44,9.12,0,0,2.49-5.47.25-9.12,0,0,1.61,4.11-.56,8.67,0,0,1.58-5.97-.81-8.74,0,0,1.68,3.86-.04,7.86,0,0,1.23-5.02-.95-7.9,0,0,1.75,3.9-.04,8.46,0,0,1.05-5.86-.88-8.14,0,0,1.12,2.67.53,6.42,0,0,.32-4.63-1.93-6.42,0,0,1.96,2.6,1.02,6.56,0,0,.04-4.63-2.32-6.32,0,0,1.65,1.68,1.54,5.79,0,0-.63-4.67-2.84-5.62,0,0,1.61,1.37,2.28,5.9,0,0-1.02-4.67-4.11-5.97,0,0,4.39,3.12,2.88,8.39,0,0,.7-5.86-3.97-7.83,0,0,2.98,1.72,3.3,6.14,0,0-.7-4.35-4.98-5.83,0,0,3.44,1.82,4.14,5.37,0,0-1.05-3.51-4.32-4.49,0,0,4.91,2.77,3.54,8.35,0,0,.63-6.04-4.39-8.14,0,0,4.14,2.53,3.72,7.58,0,0-.81-6-4.67-7.05,0,0,3.76,1.58,3.65,7.69,0,0-.28-6.18-5.23-7.54,0,0,2.84.95,4.28,5.51,0,0-1.37-3.86-3.97-4.46.59.13,1.28.94,1.65,1.35.95,1.05,1.72,2.43,1.6,3.89-.16,2.02-1.3,4-2.97,5.15-3.21,2.2-7.33,2.21-11.04,2.74-7.78,1.11-14.56,5.39-19.86,10.99-2.15,2.28-4.39,4.7-6.43,7.27,2.24.3,6.46,1.04,7.68,2.42.79.88.09,1.01-.75.81-1.49-.35-2.72-1.38-4.19-1.83-1.1-.34-2.29-.53-3.46-.48-2.69,3.53-4.98,7.34-6.18,11.48-1.25,4.32-1.85,9.96-1.1,14.42.58,3.45,1.96,7.66,4.72,9.99,1.9,1.61,4.13,1.49,5.94-.09,1.94-1.7,2.64-4.17,3.54-6.48.88-2.26,1.91-4.59,3.46-6.48,0,0-.93,2.17-.74,4.15,0,0,.62-3.47,1.74-4.84,0,0-1.24,3.35-.62,5.46,0,0-.06-1.8.68-2.79,0,0-.43,1.8.06,3.04,0,0,.06-3.6,1.24-5.15,0,0-.93,2.67-.56,5.21,0,0,.25-3.6,1.18-4.77,0,0-.81,2.79-.19,5.15,0,0,0-3.91,1.05-5.27,0,0-.93,3.53-.31,5.58l.37-2.05.25,3.16s.19-4.77,1.05-5.83c0,0-.74,4.59,0,6.26,0,0-.12-4.84.93-6.45,0,0-.74,5.21-.12,7,0,0,0-4.53.87-6.08,0,0-.68,4.65-.06,6.32,0,0,.25-5.21,1.24-6.51,0,0-.87,4.53-.31,6.76,0,0,.06-3.78.99-4.59,0,0-.81,2.48-.25,4.59,0,0,.06-3.29.99-4.4,0,0-.68,2.73.06,5.02l.31-3.16.37,3.41.5-3.47.19,4.55c-.29.64-.54,1.31-.73,2.01-1.9,6.93-1.72,14.66-1.1,21.76.19,2.13.45,4.25.79,6.35.5,3.07,1.23,6.12,2.14,9.09.78,2.54,1.79,4.99,2.95,7.37,1.12,2.29,2.52,4.43,3.66,6.71.77,1.54,1.3,3.16,1.26,4.9,0,0-.12,8.43-8.74,10.85l-2.36,13.02,2.67-1.74s-1.12-1.98-.74-4.4c0,0,.06,2.54,1.49,3.97,0,0-1.18-2.48-.74-4.84,0,0,.25,2.91,1.74,4.34,0,0-1.98-3.91-.68-7.5,0,0-.56,5.08,1.61,6.82,0,0-1.43-2.36-1.12-4.65,0,0,.43,2.73,2.17,3.84,0,0-2.54-3.16-1.3-6.2,0,0-.31,3.41,2.11,5.83,0,0-2.11-3.78-1.49-6.76,0,0,.31,4.34,2.36,6.14,0,0-2.05-3.29-1.49-5.7,0,0,.56,4.65,3.47,6.76,0,0-1.67-1.98-1.86-3.78l1.49,2.42s-.87-1.8-.99-3.66c0,0,.87,3.1,2.23,4.4,0,0-1.92-3.59-1.67-5.89,0,0,.43,3.1,2.11,5.39,0,0-1.36-3.22-1.36-5.02,0,0,.43,2.36,1.98,4.03,0,0-1.49-2.91-1.49-5.52,0,0,.62,2.85,1.86,3.97,0,0-1.18-2.23-1.12-4.03,0,0,.37,2.42,1.92,3.78,0,0-1.43-2.42-1.49-4.46,0,0,.74,2.73,1.98,3.84,0,0-1.61-2.79-1.43-4.65,0,0,.68,2.91,1.98,3.97,0,0-1.49-2.79-1.55-4.71,0,0,.68,2.79,2.17,4.03,0,0-1.55-2.54-1.61-4.34,0,0,.56,2.36,1.98,3.78,0,0-1.3-2.48-1.43-4.65,0,0,.62,2.85,1.86,4.22,0,0-1.49-2.67-1.24-5.46,0,0,.06,2.98,1.74,4.71,0,0-1.24-1.92-1.12-4.46,0,0,.37,2.42,1.55,3.91,0,0-.93-1.86-.87-3.53,0,0,.31,1.74,1.49,2.98,0,0-.99-2.11-.87-4.09,0,0,.25,2.29.99,3.53-.02-1.82.07-3.66.18-5.48.22-3.57.74-7.35,1.71-10.79.82-2.91,2.17-5.59,4.04-7.96,2.66-3.38,6.65-5.93,11.08-5.08,1.63.31,3.3.76,4.7,1.67,1.43.92,2.13,2.73,3.7,3.47l5.2,2.19s0,12.24-2.45,17.95c-2.45,5.71-5.17,20.81-1.22,17.14,3.94-3.67,27.47-44.88,12.92-87.45,0,0,1.55.58,3.32,4.11,0,0-.77-2.15-1.71-4.14,0,0,1.38,1.44,2.65,5.19,0,0-.22-2.49-1.05-4.47,0,0,1.38,2.32,1.99,4.86,0,0,.11-.72-.77-4.09,0,0,1.05,1.88,2.04,4.7,0,0-.06-1.6-.94-3.7,0,0,1.27,1.44,1.77,4.47,0,0,.22-1.99-.28-4.36,0,0,1.1,2.1,1.55,5.58l.06-2.32.83,3.04s-.11-3.26-.61-4.8c0,0,.72,1.27,1.27,5.47l-.11-3.48.99,4.42.06-2.98.72,3.75-.05-2.87s.55,1.38.72,3.15l.28-2.6s.39,1.93.5,2.98l.22-2.65.44,3.37.17-2.6.55,3.2s.22-1.6,0-3.26c0,0,.66,1.55.83,3.75,0,0,.33-1.38-.06-3.98,0,0,.88,2.04,1.05,4.53,0,0,.44-1.66.05-2.98,0,0,.77,1.66.83,3.26,0,0,.33-1.38-.22-3.87,0,0,.83,1.82,1.1,4.64l.22-2.26.77,2.65s-.06-2.43-.39-3.53c0,0,.72.83,1.1,3.92,0,0,.22-1.66-.44-3.76,0,0,.88,1.16,1.27,4.2,0,0,.28-1.55.11-2.6,0,0,.66,1.16.99,3.09,0,0,.22-1.44-.39-3.15,0,0,.94,1.27,1.33,3.65,0,0,.11-2.49-.99-4.2,0,0,1.1.57,1.75,4.57,0,0,.2-1.15-.1-2.75,0,0,.55,1.1.95,3.2,0,0,.3-1.4.05-2.4,0,0,.65,1.2.85,3,0,0,.3-1.15.1-2.25,0,0,.45.95.5,2.4,0,0,.4-1.3.15-2.5,0,0,.4.55.55,2.8,0,0,.21-1.52.07-2.66l.81,3.15-.28-3.06s.75,1.62,1.03,3.37c0,0,.03-1.06-.39-3.23,0,0,.72,1.67,1.06,3.43,0,0,.03-1.5-.53-3.79,0,0,.75,1.09,1.17,4.23,0,0,.17-1.39-.06-2.65,0,0,.5,1.03.72,2.93,0,0,.2-1.67,0-2.4,0,0,.56.82.74,2.54,0,0,.27-.77-.09-2.95,0,0,.73,1.36.95,3.45,0,0,.36-1.45-.09-4.49,0,0,.68,1.54,1.04,4.76,0,0,.14-2.81-.32-4.85,0,0,.82,2.13,1.22,5.3,0,0,.27-.82.09-2.27,0,0,.41.86.54,2.63,0,0,.27-1.36,0-3.08,0,0,.54,1.59.77,3.26l-.05-3.13.77,3.49s-.04-2.86-.36-4.08c0,0,.82,1.72.86,4.31,0,0,.54-1.77-.23-4.62,0,0,.73,1.18.95,4.85,0,0,.23-1.32.14-3.17,0,0,.59,1.04.68,3.72,0,0,.45-1.95-.14-4.04,0,0,.86,1.54,1.09,4.17,0,0,.09-2.67-.63-4.85,0,0,.95,1.41,1,5.26,0,0,.36-1.22.36-2.81,0,0,.5,1.32.5,2.81,0,0,.27-.86.27-1.86,0,0,.27,1.27.41,2.22l.18-2.31.41,2.63.09-2.54.59,2.9s.05-2.63-.18-3.45c0,0,.82,1.86.91,3.67,0,0,.18-2.45-.54-4.67,0,0,.82.86,1.09,4.81,0,0,.36-2.18-.14-4.53,0,0,.63,1.59.95,4.76,0,0,.41-.95.18-3.36,0,0,.59,1.04.54,3.49,0,0,.54-.68.32-2.54,0,0,.59,1.04.64,2.68,0,0,.32-.86-.05-2.77,0,0,.54.82.82,2.95,0,0,.18-2-.45-3.94,0,0,.77,1.36,1.27,4.35,0,0,.09-1.72-.18-2.95,0,0,.68,1.5.86,3.04,0,0,.27-1.31-.05-2.49,0,0,.54,1.18.63,2.86,0,0,.27-1.18.09-2.27,0,0,.54,1.09.68,2.27,0,0,.09-1.86-.5-4.03,0,0,1.09,1.77,1.13,4.31,0,0,.32-.86-.05-2.54,0,0,.73.82.86,2.63,0,0,.09-1.54-.36-3.04,0,0,.82,1.09.86,3.13,0,0,.36-2-.36-3.99,0,0,1,1.59.91,4.04,0,0,.36-1.04.14-2.63,0,0,.63.91.59,2.63,0,0,.5-.63-.09-2.86,0,0,.54.64.59,2.72,0,0,.68-1.27,0-3.22,0,0,.82,1.5.91,3.63,0,0,.41-1.72-.45-4.44,0,0,.82,1.36,1.04,3.76,0,0,.23-1.77-.27-3.13,0,0,.86,1.77.91,3.67,0,0,.32-2.54-.54-4.44,0,0,1.04,1.45,1.54,4.71,0,0,.14-2-.45-3.67,0,0,.73.82,1.09,3.63,0,0,.18-2-.5-3.76,0,0,1.04,1.5,1.18,3.85,0,0,.27-2.27-.59-4.17,0,0,1.36,1.59,1.63,4.31,0,0,.27-1.68-.86-3.99,0,0,1.04,1.02,1.48,3.95,0,0-.03-2.56-.98-4.92,0,0,1.18,1.72,1.48,4.92,0,0,.17-1.41-.3-3.2,0,0,.67.84,1.28,3.13,0,0-.07-1.99-.64-3.57,0,0,.88,1.38,1.55,3.6,0,0-.3-2.53-.91-4.14,0,0,.91,1.41,1.62,4.04,0,0-.27-2.59-1.21-4.45,0,0,1.11,1.35,1.85,4.34,0,0,.03-2.22-.98-4.24,0,0,1.08.91,1.48,4.24,0,0,.17-2.42-1.11-4.88,0,0,1.38,1.08,1.72,4.88,0,0,.51-1.72-.67-4.38,0,0,.91.64,1.18,4.18,0,0,.54-2.39-1.01-5.12,0,0,1.52,1.68,1.68,5.15,0,0,.64-2.86-1.31-6.06,0,0,2.19,2.29,2.02,6.03,0,0,.68-2.07-.54-4.56,0,0,.95,1.33,1.3,3.94,0,0,.17-2.4-.62-3.96,0,0,.99,1.06,1.3,4.12,0,0,.29-2.71-.85-4.95,0,0,1.02.71,1.42,3.48,0,0,.09-2.27-1-4.26,0,0,1.13,1,1.5,3.45,0,0,.09-1.27-.36-2.45l1.04,1.68s-.45-2.49-1.32-3.81c0,0,1.36,1.59,1.95,3.45,0,0-.27-2.49-.91-3.31,0,0,1.22,1.09,1.5,2.81,0,0,.09-2.45-2.22-5.35,0,0,2.09,1.72,2.58,4.81l.09-1.54.73,1.04s-.95-3.22-1.77-4.35c0,0,1.5,1.36,1.99,3.81,0,0-.09-1.77-1-3.49,0,0,1.04.77,1.63,2.95,0,0-.32-3.08-2.9-5.94,0,0,2.27,1.59,3.63,5.3,0,0-.5-2.63-2.13-4.81,0,0,1.81,1.59,2.58,4.13,0,0-.54-3.22-2.54-5.3,0,0,1.68,1.27,3.4,4.76,0,0-.73-2.54-3.08-5.35,0,0,2.04,1.18,3.31,4.85,0,0-.36-3.49-3.45-6.17,0,0,2.77,1.5,4.08,5.71,0,0-.41-2.49-2.27-4.99,0,0,1.86,1.59,2.72,4.4,0,0,0-2.18-3.31-5.94,0,0,2.45,1.59,3.9,5.26,0,0-.95-3.4-3.26-5.94,0,0,2.63,2.04,3.76,5.08,0,0-1-2.95-2.77-5.17,0,0,1.72,1.41,3.08,4.58,0,0-.91-3.13-2.27-4.53,0,0,1.86,1.63,2.77,3.63,0,0-1.31-3.36-3.76-5.58,0,0,2.54,1.59,4.13,4.49,0,0-1.32-3.45-4.85-5.99,0,0,3.49,1.95,5.49,5.62,0,0-1.41-3.31-4.9-6.35,0,0,2.95,1.95,4.94,4.67,0,0-1.5-2.67-3.94-4.76,0,0,2.13,1.18,3.94,3.63,0,0-2.27-3.49-5.26-5.62,0,0,2.49,1,5.35,4.53,0,0-1.86-3.13-4.94-5.21,0,0,2.49,1.13,5.12,4.4Zm-133.13-5.31c-.27.43-.51.88-.73,1.34.1-1.75.32-4.32.8-4.96,0,0-.3,1.96-.07,3.62Zm.25-.39c.09-1.34.35-3.44,1.06-4.9,0,0-.5,1.98-.37,3.91-.25.32-.47.65-.69.98Zm.91-1.25c.18-1.69.68-4.75,2.08-6.32,0,0-1.1,2.58-1.08,5.16-.35.37-.68.76-.99,1.15Zm1.83-2.01c-.23.22-.45.45-.67.68.22-1.13.77-3.17,1.97-4.5,0,0-.84,1.87-1.31,3.81Zm1.49-1.21s-.66.45-.7.49c-.07.06-.13.12-.2.18.59-1.67,1.43-3.61,2.32-4.51,0,0-1.43,3.04-1.43,3.84Z"/>
        </g>
        <g>
          <path class="cls-1" d="m161.11,201.72s-.52.32-1.56.62c-1.04.3-2.62.58-4.56.35-1.92-.23-4.22-.95-6.29-2.52-2.07-1.55-3.87-3.81-5.27-6.42-1.4-2.61-2.24-5.34-2.65-7.87-.42-2.53-.5-4.83-.5-6.76.03-3.86.27-6.22.31-6.22.08,0-.04,2.38,0,6.22.04,1.92.15,4.2.59,6.69.43,2.49,1.26,5.16,2.64,7.72,1.37,2.56,3.12,4.77,5.12,6.3,1.99,1.54,4.2,2.27,6.07,2.54,1.89.26,3.44.04,4.47-.2,1.04-.25,1.59-.49,1.6-.45Z"/>
          <path class="cls-1" d="m147.7,174.57s-.24-.57-.46-1.66c-.21-1.09-.4-2.7-.38-4.69.02-1.99.23-4.36.73-6.94.51-2.58,1.25-5.39,2.57-8.16.69-1.36,1.61-2.64,2.89-3.42.32-.19.65-.35,1-.47.34-.12.73-.19,1.1-.17.77.04,1.42.5,1.86,1,.9,1.03,1.38,2.21,1.91,3.24.26.52.51,1,.84,1.42.32.43.65.82.98,1.18.67.71,1.36,1.28,2.03,1.64.67.37,1.34.51,1.87.45.53-.05.92-.27,1.16-.42.24-.16.36-.26.37-.24,0,0-.09.13-.32.32-.23.18-.62.43-1.19.52-.57.09-1.29-.03-2.01-.4-.72-.36-1.45-.93-2.15-1.65-.35-.36-.7-.75-1.03-1.19-.35-.43-.63-.94-.9-1.46-.54-1.03-1.04-2.19-1.88-3.13-.42-.46-.96-.82-1.58-.85-.61-.03-1.26.24-1.85.58-1.17.72-2.05,1.92-2.72,3.24-1.29,2.69-2.04,5.49-2.56,8.03-.52,2.55-.76,4.89-.82,6.86-.06,1.97.07,3.56.23,4.65.16,1.09.32,1.68.29,1.69Z"/>
          <path class="cls-1" d="m186.99,145.34s-.15-.57.04-1.59c.18-1.03.84-2.37,1.64-3.99.79-1.63,1.57-3.64,1.92-6,.33-2.34.52-5.04-.46-7.61-.94-2.57-2.67-4.63-4.44-6.2-1.78-1.58-3.62-2.72-5.21-3.59-3.19-1.72-5.36-2.37-5.33-2.44,0-.05,2.22.49,5.48,2.16,1.62.84,3.5,1.97,5.33,3.56,1.82,1.58,3.61,3.69,4.59,6.36.48,1.33.72,2.71.74,4.04,0,1.32-.1,2.59-.29,3.79-.38,2.4-1.22,4.46-2.05,6.08-.84,1.62-1.53,2.91-1.75,3.89-.24.98-.17,1.55-.21,1.55Z"/>
          <path class="cls-1" d="m188.08,177.57s-.83-.7-1.8-2.37c-.97-1.66-1.95-4.31-2.55-7.69-.64-3.36-.88-7.57.34-12,.58-2.21,1.63-4.39,2.72-6.59.54-1.1,1.09-2.23,1.56-3.4.47-1.17.89-2.39,1.25-3.63.71-2.49,1.15-5.01,1.21-7.45.06-2.43-.28-4.8-1.1-6.88-.81-2.08-2.12-3.82-3.65-5.09-1.53-1.27-3.21-2.12-4.76-2.79-3.14-1.31-5.87-1.89-7.72-2.35-1.86-.43-2.89-.67-2.89-.71,0-.03,1.05.15,2.92.54,1.87.4,4.61.94,7.81,2.22,1.58.66,3.29,1.51,4.88,2.8,1.58,1.29,2.95,3.08,3.8,5.22.86,2.13,1.21,4.56,1.16,7.04-.05,2.49-.5,5.04-1.22,7.56-.36,1.26-.79,2.49-1.26,3.68-.48,1.19-1.03,2.32-1.57,3.42-1.1,2.2-2.13,4.33-2.72,6.5-1.21,4.34-1.02,8.49-.43,11.83.56,3.37,1.48,6,2.39,7.66.91,1.68,1.69,2.42,1.65,2.45Z"/>
          <path class="cls-1" d="m192.7,193.62s-1.01-.79-2.54-2.5c-1.51-1.72-3.62-4.36-5.34-8.11-1.68-3.76-2.83-8.66-2.61-14.12.12-2.72.59-5.59,1.64-8.38,1.04-2.79,2.56-5.46,3.92-8.27.67-1.4,1.29-2.82,1.75-4.25.46-1.43.77-2.9,1-4.35.44-2.89.44-5.76-.16-8.37-.29-1.31-.73-2.54-1.33-3.66-.6-1.12-1.34-2.11-2.16-2.97-1.63-1.74-3.53-2.98-5.33-3.92-.91-.47-1.8-.86-2.65-1.19-.86-.33-1.68-.6-2.47-.78-1.58-.36-2.98-.48-4.12-.58-2.29-.17-3.55-.33-3.54-.36,0-.03,1.26.07,3.56.19,1.14.08,2.55.17,4.16.51.8.17,1.65.43,2.51.75.87.32,1.78.71,2.7,1.17,1.84.93,3.77,2.17,5.46,3.94.84.88,1.61,1.9,2.23,3.04.63,1.14,1.08,2.42,1.39,3.75.62,2.68.63,5.6.19,8.53-.23,1.47-.54,2.95-1,4.42-.47,1.47-1.09,2.9-1.77,4.31-1.36,2.83-2.88,5.48-3.91,8.23-1.04,2.74-1.51,5.55-1.64,8.24-.24,5.39.86,10.25,2.48,13.98,1.66,3.73,3.72,6.38,5.18,8.13,1.48,1.74,2.44,2.59,2.41,2.62Z"/>
          <path class="cls-5" d="m164.69,145.06s-1.5-.52-3.68-1.83c-2.18-1.3-5.04-3.44-7.62-6.37-2.59-2.92-4.38-6-5.43-8.31-1.06-2.32-1.41-3.87-1.35-3.89.06-.02.52,1.48,1.64,3.75,1.12,2.26,2.92,5.27,5.48,8.15,2.55,2.89,5.33,5.03,7.45,6.4,2.12,1.37,3.55,2.04,3.51,2.11Z"/>
          <path class="cls-5" d="m169.39,145.85c-.03.12-2.33-.47-4.85-1.9-2.53-1.4-4.27-3.01-4.18-3.1.08-.09,1.91,1.33,4.4,2.71,2.48,1.4,4.67,2.17,4.63,2.29Z"/>
          <path class="cls-5" d="m166.2,142.53c-.04.11-2.01-.68-4.1-2.24-2.1-1.54-3.37-3.27-3.25-3.35.08-.07,1.46,1.48,3.52,2.99,2.04,1.53,3.88,2.48,3.82,2.6Z"/>
          <path class="cls-5" d="m164.9,133.04s-1.16-.21-2.87-1.01c-1.71-.8-3.94-2.23-5.95-4.32-2.02-2.08-3.41-4.32-4.25-6-.84-1.69-1.15-2.82-1.09-2.84.06-.02.47,1.06,1.38,2.69.9,1.62,2.32,3.8,4.29,5.83,1.97,2.04,4.12,3.49,5.77,4.35,1.65.86,2.75,1.23,2.73,1.3Z"/>
          <path class="cls-5" d="m164.64,131.55c-.02.05-.81-.19-2-.78-1.19-.59-2.76-1.57-4.27-2.94-1.51-1.36-2.64-2.84-3.34-3.96-.7-1.13-.99-1.91-.93-1.94.06-.03.44.69,1.19,1.76.75,1.06,1.9,2.47,3.38,3.8,2.95,2.7,6.03,3.92,5.96,4.06Z"/>
          <path class="cls-5" d="m172.57,132.59c0,.05-.91.04-2.33-.29-1.41-.32-3.33-.99-5.27-2.06-3.9-2.14-6.35-4.85-6.25-4.93.08-.09,2.64,2.43,6.47,4.53,1.91,1.06,3.76,1.76,5.13,2.15,1.37.4,2.25.53,2.24.6Z"/>
          <path class="cls-5" d="m165.49,128.43c-.03.11-2.25-.64-4.47-2.44-2.24-1.78-3.45-3.8-3.33-3.86.09-.06,1.43,1.78,3.61,3.51,2.16,1.75,4.25,2.67,4.19,2.8Z"/>
          <path class="cls-5" d="m166.92,120.83c-.02.1-2.9-.72-5.98-2.7-1.54-.98-2.79-2.09-3.59-2.98-.8-.89-1.15-1.57-1.09-1.6.05-.03.48.56,1.32,1.38.84.82,2.09,1.86,3.6,2.82,3.02,1.94,5.8,2.94,5.74,3.08Z"/>
          <path class="cls-5" d="m171.47,120.76c-.01.1-3.31-.56-6.98-2.46-1.83-.95-3.35-2.06-4.32-2.99-.99-.93-1.43-1.66-1.37-1.7.05-.03.56.61,1.58,1.45,1.01.85,2.52,1.9,4.32,2.83,3.6,1.87,6.82,2.72,6.77,2.86Z"/>
          <path class="cls-5" d="m174.91,119.79c-.02.1-3.25-.35-7.05-1.65-1.9-.65-3.56-1.43-4.68-2.13-1.13-.69-1.71-1.3-1.65-1.35.04-.04.66.46,1.81,1.07,1.14.61,2.79,1.33,4.67,1.98,3.76,1.29,6.94,1.94,6.91,2.08Z"/>
          <path class="cls-5" d="m173.03,115.5c0,.11-2.16.23-4.75-.37-1.29-.29-2.42-.72-3.19-1.11-.78-.39-1.2-.74-1.16-.8.03-.05.5.2,1.29.5.79.31,1.9.68,3.16.96,2.53.58,4.65.67,4.64.81Z"/>
          <path class="cls-5" d="m172.77,113.55c0,.06-.49.16-1.3.16-.81,0-1.94-.12-3.13-.46-2.4-.68-4.04-1.94-3.95-2.04.06-.1,1.75.95,4.07,1.61,2.32.68,4.31.6,4.31.73Z"/>
          <path class="cls-5" d="m165.36,106.33c-.05-.01.01-.67.34-1.68.33-1.01.96-2.36,1.96-3.65.99-1.29,2.12-2.26,3-2.85.88-.6,1.5-.84,1.52-.79.07.1-2.23,1.39-4.16,3.92-1.96,2.5-2.53,5.1-2.66,5.05Z"/>
          <path class="cls-5" d="m163.67,106.14c-.05,0-.05-.59.19-1.49.24-.9.75-2.09,1.52-3.28,1.56-2.38,3.42-3.78,3.49-3.68.09.09-1.59,1.62-3.11,3.93-.76,1.15-1.29,2.28-1.6,3.13-.31.85-.42,1.4-.49,1.39Z"/>
          <path class="cls-5" d="m161.13,107.37c-.06-.02.03-.55.32-1.37.29-.82.79-1.92,1.51-3.04,1.43-2.25,3.09-3.68,3.17-3.58.08.09-1.39,1.62-2.79,3.82-1.42,2.19-2.09,4.21-2.21,4.17Z"/>
          <path class="cls-5" d="m160.09,106.33c-.12-.02.43-2.35,2.02-4.77,1.56-2.44,3.36-3.97,3.44-3.87.08.09-1.54,1.74-3.06,4.12-1.55,2.37-2.28,4.56-2.4,4.53Z"/>
          <path class="cls-5" d="m156.58,108.22c-.11,0,.22-2.52,1.75-5.2.75-1.34,1.62-2.42,2.32-3.14.7-.72,1.22-1.07,1.26-1.02.07.08-1.74,1.75-3.19,4.38-1.48,2.6-2.01,5.02-2.14,4.98Z"/>
          <path class="cls-5" d="m154.24,109.19c-.06,0-.09-.58.11-1.49.19-.91.63-2.12,1.31-3.34,1.36-2.47,2.98-4.09,3.07-4.01.1.08-1.35,1.81-2.67,4.22-.66,1.2-1.13,2.35-1.4,3.21-.27.86-.35,1.41-.42,1.41Z"/>
          <path class="cls-5" d="m153.59,107.24c-.06-.01-.01-.48.21-1.19.22-.71.62-1.67,1.23-2.64,1.2-1.95,2.65-3.15,2.73-3.05.09.09-1.18,1.4-2.34,3.29-1.19,1.88-1.7,3.63-1.82,3.6Z"/>
          <path class="cls-5" d="m151.06,108.93c-.06,0-.12-.48.03-1.23.15-.75.52-1.74,1.07-2.74,1.1-2.02,2.38-3.39,2.47-3.31.1.08-1,1.56-2.07,3.53-.54.98-.94,1.91-1.16,2.61-.22.69-.28,1.15-.34,1.15Z"/>
          <path class="cls-5" d="m149.43,108.02c-.06-.01-.01-.45.19-1.12.21-.67.6-1.57,1.18-2.47,1.16-1.82,2.58-2.88,2.66-2.78.08.09-1.16,1.27-2.28,3.02-1.14,1.74-1.63,3.38-1.75,3.35Z"/>
          <path class="cls-5" d="m148.79,106.33c-.11-.04.44-1.75,1.58-3.65.57-.95,1.19-1.75,1.7-2.26.51-.52.9-.76.94-.71.04.05-.27.36-.7.92-.44.56-1,1.36-1.55,2.29-1.11,1.86-1.85,3.47-1.97,3.42Z"/>
          <path class="cls-5" d="m147.03,106.72c-.06,0-.07-.54.14-1.36.21-.82.65-1.91,1.3-3.01,1.3-2.22,2.77-3.7,2.85-3.62.1.08-1.2,1.68-2.46,3.85-.63,1.08-1.11,2.11-1.38,2.88-.28.77-.38,1.27-.44,1.26Z"/>
          <path class="cls-5" d="m144.11,106.2c-.11-.04.42-1.85,1.57-3.87.57-1.01,1.2-1.86,1.71-2.42.51-.57.9-.85.94-.8.04.04-.26.4-.69,1-.44.6-1.01,1.46-1.57,2.44-1.13,1.97-1.83,3.69-1.96,3.64Z"/>
          <path class="cls-5" d="m142.48,106.66c-.06,0-.06-.47.08-1.21.15-.73.49-1.73,1.08-2.71,1.18-2,2.81-3.03,2.87-2.91.08.09-1.36,1.24-2.48,3.14-1.15,1.89-1.42,3.71-1.55,3.68Z"/>
          <path class="cls-5" d="m142.03,104.12c-.06-.02,0-.44.22-1.09.23-.65.64-1.51,1.23-2.37,1.17-1.74,2.5-2.82,2.58-2.72.09.09-1.07,1.29-2.2,2.97-1.16,1.67-1.71,3.24-1.83,3.2Z"/>
          <path class="cls-5" d="m139.62,106.4c-.13,0,.03-1.68.96-3.48.9-1.8,2.05-3,2.14-2.91.1.08-.86,1.36-1.74,3.11-.9,1.74-1.25,3.3-1.37,3.28Z"/>
          <path class="cls-5" d="m138.1,106.4c-.06,0-.04-.51.18-1.28.21-.77.64-1.8,1.25-2.84,1.22-2.1,2.62-3.51,2.71-3.42.1.08-1.12,1.6-2.32,3.65-.6,1.03-1.05,2-1.34,2.72-.29.72-.42,1.19-.48,1.18Z"/>
          <path class="cls-5" d="m137.37,104.94c-.12,0-.07-1.41.68-2.94.73-1.53,1.72-2.5,1.81-2.41.09.08-.71,1.14-1.41,2.61-.71,1.46-.96,2.76-1.09,2.75Z"/>
          <path class="cls-5" d="m135.66,105.67c-.06-.01,0-.56.22-1.42.23-.85.66-2.01,1.3-3.2,1.29-2.39,2.89-3.94,2.98-3.84.09.08-1.33,1.72-2.58,4.06-1.28,2.32-1.8,4.43-1.92,4.4Z"/>
          <path class="cls-5" d="m134.63,103.6c-.06,0-.1-.37-.02-.95.08-.58.3-1.37.69-2.17.79-1.61,1.92-2.58,2-2.48.09.09-.84,1.15-1.59,2.68-.78,1.53-.96,2.93-1.08,2.92Z"/>
          <path class="cls-5" d="m133.59,102.38c-.12,0-.19-1.47.55-3.08.72-1.62,1.86-2.56,1.94-2.46.08.09-.85,1.11-1.53,2.64-.7,1.52-.83,2.91-.97,2.9Z"/>
          <path class="cls-5" d="m131.89,103.05c-.11,0-.14-1.87.8-3.93.91-2.07,2.34-3.3,2.42-3.19.08.08-1.13,1.39-2.01,3.38-.9,1.97-1.08,3.76-1.22,3.74Z"/>
          <path class="cls-5" d="m131.1,101.04c-.11,0-.09-2.01.99-4.2,1.06-2.2,2.64-3.46,2.72-3.35.08.08-1.3,1.44-2.31,3.55-1.04,2.09-1.26,4.02-1.4,4Z"/>
          <path class="cls-5" d="m163.96,97.21c-.09-.06,1.05-1.69,3.12-2.94,1.03-.62,2.08-.98,2.85-1.12.78-.14,1.27-.08,1.27-.02,0,.06-.47.12-1.2.33-.73.21-1.7.6-2.69,1.2-1.99,1.19-3.25,2.65-3.36,2.55Z"/>
          <path class="cls-5" d="m160.13,98.79c-.05-.03.14-.53.63-1.25.48-.72,1.29-1.62,2.35-2.42,2.12-1.62,4.24-2.17,4.27-2.05.04.12-1.95.85-3.99,2.41-1.02.77-1.83,1.61-2.37,2.26-.54.65-.83,1.09-.89,1.05Z"/>
          <path class="cls-5" d="m155.51,98.24c-.1-.05.87-1.71,2.75-3.09,1.86-1.41,3.74-1.85,3.76-1.71.03.11-1.7.72-3.49,2.08-1.81,1.33-2.91,2.81-3.02,2.73Z"/>
          <path class="cls-5" d="m156.6,95.08s.52-.68,1.6-1.52c1.07-.85,2.68-1.87,4.61-2.68,3.86-1.65,7.31-1.84,7.3-1.7.02.12-3.34.51-7.13,2.12-1.89.8-3.49,1.75-4.6,2.52-1.11.77-1.74,1.32-1.79,1.27Z"/>
          <path class="cls-5" d="m152.16,96.36c-.09-.05.93-1.8,2.83-3.37.95-.78,1.92-1.34,2.66-1.65.74-.32,1.24-.39,1.26-.33.02.06-.44.24-1.12.62-.68.38-1.6.96-2.51,1.72-1.84,1.52-3.01,3.11-3.12,3.02Z"/>
          <path class="cls-5" d="m150.15,95.2s.12-.43.53-.98c.41-.55,1.08-1.25,1.95-1.84,1.75-1.21,3.46-1.56,3.48-1.43.04.12-1.55.65-3.22,1.81-1.69,1.13-2.64,2.52-2.74,2.45Z"/>
          <path class="cls-5" d="m143.82,95.69s.39-.7,1.31-1.58c.92-.88,2.36-1.94,4.14-2.75,3.56-1.64,6.8-1.75,6.79-1.63.03.12-3.12.44-6.59,2.04-1.73.79-3.16,1.77-4.11,2.58-.96.8-1.47,1.39-1.52,1.35Z"/>
          <path class="cls-5" d="m151.37,89.78s.33-.4,1.02-.83c.69-.43,1.73-.9,2.93-1.21,2.42-.62,4.46-.39,4.45-.27,0,.12-1.99.1-4.33.71-1.17.3-2.18.71-2.89,1.05-.71.35-1.13.61-1.17.55Z"/>
          <path class="cls-5" d="m139.26,94.96s.22-.52.78-1.22c.56-.7,1.43-1.61,2.58-2.38,1.14-.78,2.33-1.23,3.22-1.4.89-.18,1.46-.11,1.46-.05,0,.06-.54.11-1.38.36-.83.25-1.95.72-3.05,1.47-2.21,1.5-3.49,3.32-3.61,3.22Z"/>
          <path class="cls-5" d="m138.22,88.02s.45-.54,1.39-1.16c.93-.62,2.34-1.34,4.03-1.69,1.69-.37,3.28-.28,4.37-.06,1.11.22,1.74.54,1.71.6-.02.06-.67-.15-1.76-.28-1.08-.13-2.6-.16-4.23.19-1.63.34-3.01.99-3.96,1.52-.96.54-1.51.94-1.56.88Z"/>
          <path class="cls-5" d="m136.46,93.74s.12-.4.5-.92c.39-.52,1.01-1.19,1.84-1.75.83-.57,1.69-.9,2.32-1.04.64-.15,1.05-.12,1.05-.06.02.11-1.55.38-3.12,1.48-1.58,1.07-2.48,2.38-2.6,2.3Z"/>
          <path class="cls-5" d="m133.66,92.95s.2-.48.74-1.08c.54-.6,1.41-1.34,2.5-1.93,2.19-1.2,4.25-1.37,4.25-1.24.02.12-1.93.48-4.03,1.64-2.13,1.13-3.36,2.7-3.46,2.62Z"/>
          <path class="cls-5" d="m132.99,88.99s.35-.58,1.12-1.35c.76-.76,1.91-1.75,3.34-2.58,1.43-.84,2.88-1.33,3.95-1.53,1.07-.21,1.76-.14,1.75-.08,0,.06-.66.11-1.68.39-1.02.27-2.4.79-3.79,1.61-2.8,1.63-4.58,3.65-4.69,3.54Z"/>
          <path class="cls-5" d="m128.48,89.36s.23-.56.82-1.33c.59-.76,1.51-1.74,2.7-2.61,1.19-.88,2.4-1.47,3.3-1.8.91-.33,1.51-.41,1.52-.35.04.1-2.24.79-4.55,2.51-2.33,1.7-3.67,3.66-3.78,3.58Z"/>
          <path class="cls-5" d="m125.01,89.54c-.05-.02.06-.49.47-1.14.41-.65,1.13-1.45,2.06-2.14,1.87-1.39,3.7-1.95,3.73-1.83.05.12-1.66.85-3.46,2.2-.9.67-1.62,1.39-2.07,1.96-.46.57-.67.98-.74.95Z"/>
          <path class="cls-5" d="m123.05,87.67s.14-.52.66-1.18c.51-.66,1.36-1.47,2.44-2.15,2.16-1.38,4.2-1.83,4.22-1.71.04.12-1.9.76-3.98,2.09-1.04.66-1.89,1.39-2.44,1.98-.56.58-.84,1.01-.9.97Z"/>
          <path class="cls-5" d="m121.83,84.6s.29-.5.99-1.09c.69-.59,1.76-1.28,3.05-1.8,2.59-1.05,4.88-1.07,4.88-.94.01.12-2.2.35-4.71,1.36-1.25.5-2.3,1.12-3.02,1.63-.72.51-1.13.88-1.18.83Z"/>
          <path class="cls-5" d="m122.17,81.83s.31-.42.99-.92c.67-.49,1.67-1.09,2.88-1.52,1.21-.43,2.37-.59,3.21-.59.84,0,1.35.12,1.34.18,0,.06-.51.05-1.32.14-.81.09-1.91.29-3.08.7-2.34.82-3.94,2.12-4.02,2.01Z"/>
          <path class="cls-5" d="m126.12,77.93c-.02-.05.48-.36,1.36-.7.88-.34,2.16-.7,3.61-.8,1.45-.1,2.77.09,3.68.36.92.27,1.42.59,1.39.64-.03.06-.56-.15-1.47-.33-.9-.18-2.18-.32-3.58-.22-2.82.2-4.95,1.19-5,1.05Z"/>
          <path class="cls-5" d="m120.62,78.65s.3-.42.99-.86c.68-.44,1.71-.91,2.91-1.23,2.39-.64,4.41-.54,4.41-.41,0,.13-1.97.23-4.29.85-1.16.31-2.17.71-2.87,1.07-.7.35-1.11.63-1.15.58Z"/>
          <path class="cls-5" d="m122.33,75.8c-.05-.1,2.08-1.04,4.9-1.19,2.82-.18,5.05.52,5,.66-.02.11-2.23-.38-4.97-.2-2.74.14-4.89.86-4.93.73Z"/>
          <path class="cls-5" d="m113.38,93.44c-.1-.04.54-1.71,1.99-3.33.72-.81,1.5-1.42,2.11-1.79.61-.37,1.04-.51,1.06-.45.05.09-1.44.96-2.83,2.54-1.4,1.56-2.21,3.1-2.33,3.03Z"/>
          <path class="cls-5" d="m113.26,91.43c-.11-.04.48-1.45,1.79-2.76,1.29-1.33,2.72-1.92,2.76-1.79.05.1-1.21.83-2.44,2.1-1.25,1.25-1.99,2.51-2.11,2.45Z"/>
          <path class="cls-5" d="m111.63,91.88c-.1-.03.5-1.94,2.04-3.83.77-.94,1.64-1.65,2.33-2.05.69-.41,1.19-.52,1.2-.45.02.06-.41.26-1.03.72-.62.45-1.41,1.16-2.15,2.07-1.49,1.82-2.26,3.61-2.39,3.54Z"/>
          <path class="cls-5" d="m110.08,90.14c-.11-.06,1.03-1.91,3.15-3.49,2.1-1.6,4.17-2.25,4.2-2.12.04.11-1.89.92-3.93,2.48-2.06,1.53-3.32,3.21-3.43,3.13Z"/>
          <path class="cls-5" d="m109.96,88.47c-.1-.06,1.27-1.97,3.68-3.48,2.39-1.54,4.69-2,4.71-1.87.03.11-2.14.75-4.46,2.25-2.34,1.46-3.82,3.19-3.92,3.1Z"/>
          <path class="cls-5" d="m109.77,86.95s.25-.53.88-1.21c.62-.68,1.61-1.52,2.86-2.18,1.25-.67,2.5-1.01,3.41-1.15.91-.14,1.49-.08,1.49-.02.02.11-2.27.26-4.69,1.56-2.43,1.27-3.85,3.09-3.95,2.99Z"/>
          <path class="cls-5" d="m109.55,85.4s.33-.51,1.03-1.15c.71-.64,1.77-1.46,3.09-2.12,1.32-.66,2.62-1.01,3.58-1.13.96-.12,1.56-.02,1.56.04,0,.06-.59.08-1.5.27-.91.19-2.15.57-3.43,1.22-2.56,1.29-4.22,2.98-4.32,2.87Z"/>
          <path class="cls-5" d="m110.23,83.35c-.08-.08,1.13-1.34,3.03-2.33.95-.49,1.88-.79,2.58-.89.7-.11,1.14-.03,1.14.03,0,.06-.42.1-1.07.28-.65.18-1.52.5-2.44.98-1.83.95-3.15,2.04-3.24,1.93Z"/>
          <path class="cls-5" d="m111.9,80.73s.25-.35.81-.72c.56-.37,1.4-.78,2.38-1.08,1.96-.62,3.63-.63,3.63-.51.01.12-1.6.34-3.5.94-.95.3-1.77.65-2.36.93-.58.29-.93.5-.97.44Z"/>
          <path class="cls-5" d="m110.27,80.81c-.09-.08,1.29-1.47,3.47-2.43,2.16-.97,4.1-1.15,4.11-1.02.02.12-1.83.49-3.93,1.44-2.11.92-3.58,2.11-3.66,2.01Z"/>
          <path class="cls-5" d="m111.33,78.38c-.07-.08,1.81-1.45,4.53-2.21,1.35-.38,2.63-.52,3.55-.5.92,0,1.48.15,1.47.21,0,.06-.57.03-1.46.11-.89.07-2.12.25-3.44.62-2.64.74-4.58,1.9-4.65,1.78Z"/>
          <path class="cls-5" d="m113.26,76.33c-.06-.09,1.73-1.16,4.21-1.73,1.24-.29,2.39-.37,3.22-.33.83.03,1.34.18,1.32.24-.01.06-.51.03-1.32.08-.81.04-1.92.18-3.12.46-2.41.55-4.25,1.42-4.31,1.29Z"/>
          <path class="cls-5" d="m113.41,74.86c-.05-.1,1.49-.99,3.59-1.59,1.05-.3,2.04-.46,2.76-.48.72-.03,1.17.08,1.16.14,0,.06-.44.07-1.13.18-.69.1-1.63.3-2.66.6-2.05.59-3.66,1.28-3.72,1.16Z"/>
          <path class="cls-5" d="m123.5,73.45c-.02-.05.54-.31,1.5-.54.96-.23,2.31-.4,3.81-.37,3.01.06,5.35.82,5.31.94-.03.12-2.37-.43-5.32-.49-1.47-.03-2.79.08-3.74.23-.95.14-1.54.29-1.56.22Z"/>
          <path class="cls-5" d="m113.76,73.34c-.06-.09,2-1.26,4.86-1.71,1.42-.23,2.74-.19,3.67-.04.93.15,1.47.4,1.45.46-.02.06-.57-.08-1.49-.14-.91-.07-2.18-.05-3.56.17-2.77.44-4.87,1.4-4.93,1.27Z"/>
          <path class="cls-5" d="m126.38,71.06c-.03-.11,2.77-.7,6.27-.46,1.74.11,3.3.4,4.4.71,1.1.3,1.75.6,1.73.66-.02.06-.69-.14-1.8-.35-1.1-.22-2.65-.46-4.36-.57-3.43-.23-6.22.15-6.24,0Z"/>
          <path class="cls-5" d="m118.84,70.61c-.03-.11,1.59-.62,3.69-.73,1.04-.06,2,.02,2.67.16.68.14,1.06.36,1.04.42-.02.05-.42-.04-1.08-.1-.66-.06-1.58-.08-2.6-.03-2.04.11-3.68.42-3.71.28Z"/>
          <path class="cls-5" d="m126.91,69.47c-.02-.11,2.11-.55,4.79-.49,1.33.03,2.54.21,3.39.45.85.23,1.33.51,1.3.57-.03.05-.53-.12-1.37-.26-.84-.15-2.02-.27-3.33-.31-2.62-.06-4.76.17-4.77.04Z"/>
          <path class="cls-5" d="m117.97,69.36c-.05-.11,2.1-1.01,4.93-1.27,2.83-.29,5.12.19,5.08.33-.02.11-2.27-.16-5.04.12-2.77.26-4.93.95-4.97.82Z"/>
          <path class="cls-5" d="m127.98,66.78c0-.11,2.62-.37,5.86-.07,1.62.15,3.07.44,4.09.75,1.02.3,1.61.63,1.58.69-.02.05-.64-.16-1.66-.38-1.02-.22-2.46-.46-4.05-.61-3.19-.3-5.81-.24-5.81-.38Z"/>
          <path class="cls-5" d="m121.23,66.32c-.03-.11,1.97-.65,4.5-.81,1.27-.08,2.42-.04,3.25.07.83.1,1.33.27,1.31.33-.01.06-.52,0-1.33,0-.82-.02-1.95-.01-3.2.07-2.49.16-4.51.5-4.53.36Z"/>
          <path class="cls-5" d="m124.82,64.24c0-.05,1.1-.27,2.92-.37,1.82-.1,4.35-.05,7.1.42,2.75.45,5.17,1.21,6.86,1.89,1.69.68,2.66,1.27,2.63,1.32-.03.05-1.04-.43-2.74-1.02-1.7-.6-4.1-1.3-6.82-1.74-5.44-.93-9.94-.34-9.95-.49Z"/>
          <path class="cls-5" d="m138.95,63.79c0-.1,2.04-.04,4.35.89,1.15.47,2.11,1.09,2.7,1.65.61.55.85,1.01.8,1.05-.05.03-.37-.33-1-.8-.63-.47-1.56-1.02-2.67-1.48-2.23-.9-4.2-1.17-4.17-1.31Z"/>
          <path class="cls-5" d="m125.89,63.12c-.01-.05.65-.31,1.79-.51,1.13-.2,2.73-.32,4.48-.13,1.75.18,3.29.62,4.36,1.03,1.07.41,1.68.79,1.65.85-.04.11-2.63-1.08-6.06-1.43-3.43-.39-6.19.33-6.22.19Z"/>
          <path class="cls-5" d="m128.92,61.66c-.03-.11,2.08-.64,4.73-.49,2.65.13,4.69.92,4.63,1.05-.03.11-2.07-.47-4.66-.59-2.58-.15-4.68.17-4.7.03Z"/>
          <path class="cls-5" d="m139.9,61.6c.01-.11,2,.07,4.25,1.02,1.12.47,2.08,1.03,2.72,1.51.64.47.98.85.93.89-.07.08-1.62-1.09-3.83-1.99-2.19-.92-4.1-1.3-4.08-1.43Z"/>
          <path class="cls-5" d="m132.22,60.2c0-.06.73-.2,1.95-.25,1.21-.05,2.9.01,4.72.31,3.67.58,6.45,1.79,6.39,1.91-.04.11-2.85-.89-6.46-1.46-3.61-.61-6.59-.38-6.6-.5Z"/>
          <path class="cls-5" d="m145.45,61.55c.03-.1,2.22.42,4.68,1.72,1.22.65,2.24,1.41,2.89,2.06.65.65.91,1.18.85,1.21-.05.03-.38-.41-1.06-.97-.67-.57-1.69-1.26-2.89-1.9-2.39-1.27-4.51-1.98-4.46-2.12Z"/>
          <path class="cls-5" d="m143.99,60.36c-.05.13-2.32-.79-5.29-1.14-2.97-.38-5.39-.06-5.41-.17-.04-.13,2.43-.67,5.47-.28,3.04.36,5.3,1.49,5.24,1.59Z"/>
          <path class="cls-5" d="m146.68,59.36c-.05.12-2.38-.72-5.4-1.18-3.01-.49-5.49-.46-5.49-.57-.02-.13,2.51-.38,5.57.12,3.07.47,5.38,1.52,5.32,1.63Z"/>
          <path class="cls-5" d="m154.75,64.37c-.09.1-1.6-1.35-3.91-2.38-2.3-1.07-4.37-1.32-4.35-1.43,0-.13,2.16-.08,4.54,1.02,1.18.54,2.16,1.22,2.8,1.78.64.56.96.98.92,1.02Z"/>
          <path class="cls-5" d="m148.62,58.61c-.04.05-.51-.29-1.34-.66-.83-.39-2.04-.78-3.41-1.03-2.76-.51-5.07-.43-5.07-.56-.02-.12,2.32-.41,5.16.11,1.41.26,2.65.72,3.48,1.19.83.47,1.23.91,1.19.95Z"/>
          <path class="cls-5" d="m158.63,64.31c-.11.08-1.19-1.41-3.01-2.68-1.81-1.29-3.54-1.9-3.5-2.02.03-.13,1.88.31,3.76,1.65.94.66,1.67,1.41,2.13,2,.46.59.67,1.01.62,1.04Z"/>
          <path class="cls-5" d="m153.63,58.17c-.05.05-.41-.23-1.05-.57-.64-.34-1.57-.71-2.65-.98-2.16-.54-4-.57-4-.7-.01-.12,1.87-.29,4.11.26,1.12.28,2.08.72,2.71,1.15.63.43.92.81.88.85Z"/>
          <path class="cls-5" d="m163.26,64.74c-.12.08-.99-1.52-2.64-2.93-.82-.71-1.67-1.21-2.31-1.51-.64-.31-1.07-.44-1.06-.5,0-.06.48-.04,1.18.2.7.24,1.62.72,2.48,1.46.86.74,1.48,1.56,1.86,2.19.38.63.54,1.06.48,1.09Z"/>
          <path class="cls-5" d="m158.07,58.67s-.46-.34-1.22-.81c-.76-.47-1.88-1-3.19-1.42-2.62-.84-4.87-1.09-4.85-1.22,0-.12,2.3-.07,4.99.79,1.34.43,2.49,1.02,3.23,1.58.75.56,1.08,1.04,1.04,1.07Z"/>
          <path class="cls-5" d="m162.51,59.3c-.05.05-.52-.44-1.36-1.09-.84-.66-2.1-1.44-3.61-2.06-3.03-1.25-5.74-1.41-5.72-1.54-.02-.12,2.77-.16,5.9,1.12,1.56.63,2.83,1.5,3.65,2.23.82.74,1.2,1.3,1.16,1.34Z"/>
          <path class="cls-5" d="m165.27,58.67s-.52-.41-1.35-1.04c-.83-.63-2.04-1.42-3.5-2.05-2.92-1.29-5.56-1.48-5.54-1.6-.02-.13,2.71-.13,5.72,1.19,1.5.65,2.73,1.51,3.52,2.22.8.71,1.19,1.25,1.15,1.29Z"/>
          <path class="cls-5" d="m168.9,63.62c-.07.02-.19-.35-.51-.88-.31-.53-.84-1.2-1.52-1.86-1.36-1.32-2.67-2.16-2.6-2.27.05-.11,1.51.58,2.92,1.95.7.68,1.22,1.43,1.48,2.03.26.6.28,1.01.23,1.02Z"/>
          <path class="cls-5" d="m167.02,58.92c-.06.04-.37-.4-.96-1-.59-.61-1.49-1.36-2.59-2.05-2.21-1.37-4.25-2.02-4.21-2.15.02-.12,2.17.35,4.45,1.76,1.14.7,2.04,1.53,2.59,2.22.55.68.77,1.19.72,1.22Z"/>
          <path class="cls-5" d="m172.09,61.99c-.12.06-.79-1.3-2.07-2.62-1.26-1.33-2.56-2.1-2.5-2.2.05-.12,1.51.49,2.83,1.89,1.34,1.38,1.85,2.9,1.74,2.93Z"/>
          <path class="cls-5" d="m170.15,57.55c-.06.04-.4-.39-1.12-.91-.71-.53-1.78-1.13-3.03-1.67-2.5-1.09-4.65-1.67-4.62-1.79.02-.12,2.25.27,4.8,1.38,1.27.56,2.36,1.23,3.04,1.84.7.61.97,1.13.92,1.16Z"/>
          <path class="cls-5" d="m176.53,65.93c-.13.05-.74-1.93-2.23-3.93-1.47-2.02-3.21-3.12-3.15-3.21.03-.06.52.14,1.21.63.68.49,1.55,1.28,2.31,2.31,1.55,2.08,1.97,4.18,1.86,4.2Z"/>
          <path class="cls-5" d="m174.09,58.49c-.06.04-.35-.41-.92-1.04-.57-.62-1.46-1.38-2.59-2.01-2.26-1.26-4.4-1.58-4.37-1.71,0-.12,2.23,0,4.59,1.31,1.17.65,2.08,1.5,2.61,2.2.54.7.73,1.22.68,1.24Z"/>
          <path class="cls-5" d="m178.79,65.12c-.07.02-.26-.51-.69-1.29-.42-.79-1.12-1.82-2.06-2.8-1.89-1.99-3.89-3.05-3.83-3.16.04-.12,2.2.79,4.15,2.85.97,1.02,1.66,2.13,2.02,2.97.37.85.45,1.42.4,1.43Z"/>
          <path class="cls-5" d="m177.78,58.86c-.06.04-.37-.38-.96-.96-.59-.58-1.5-1.29-2.59-1.93-2.19-1.29-4.18-1.93-4.14-2.05.02-.12,2.12.33,4.37,1.67,1.12.66,2.04,1.45,2.59,2.1.56.66.78,1.15.73,1.18Z"/>
          <path class="cls-5" d="m180.16,66.12c-.07,0-.11-.53-.32-1.35-.21-.82-.62-1.91-1.26-3.03-1.29-2.25-2.83-3.73-2.73-3.82.07-.1,1.79,1.27,3.13,3.6.66,1.16,1.05,2.32,1.18,3.19.14.87.06,1.41,0,1.41Z"/>
          <path class="cls-5" d="m181.16,58.8c-.1.09-1.86-1.96-4.71-3.58-2.83-1.65-5.46-2.26-5.43-2.37,0-.13,2.75.29,5.65,1.98,1.45.83,2.62,1.81,3.39,2.59.76.78,1.14,1.35,1.1,1.38Z"/>
          <path class="cls-5" d="m183.17,65.06c-.14.04-.51-1.92-1.8-3.94-1.27-2.04-2.9-3.17-2.83-3.26.03-.05.5.15,1.13.66.63.5,1.43,1.31,2.09,2.36.67,1.04,1.06,2.11,1.25,2.89.2.78.22,1.28.16,1.29Z"/>
          <path class="cls-5" d="m184.61,59.61c-.06.04-.4-.45-1.06-1.12-.66-.68-1.66-1.52-2.87-2.3-2.43-1.56-4.68-2.34-4.64-2.46.03-.12,2.38.47,4.89,2.08,1.25.8,2.25,1.72,2.86,2.47.62.75.87,1.31.83,1.33Z"/>
          <path class="cls-5" d="m187.42,67.56c-.15.02-.21-1.92-1.23-3.98-.5-1.03-1.13-1.86-1.63-2.42-.5-.56-.87-.86-.83-.92.03-.05.48.16,1.06.69.58.52,1.29,1.37,1.81,2.45.53,1.08.77,2.15.85,2.92.08.78.03,1.26-.03,1.26Z"/>
          <path class="cls-5" d="m190.74,67.31c-.07.02-.31-.79-.79-2.05-.48-1.26-1.21-2.98-2.31-4.7-1.09-1.73-2.37-3.09-3.4-3.93-1.03-.86-1.79-1.22-1.76-1.27.02-.06.85.21,1.96,1.02,1.11.8,2.47,2.17,3.59,3.94,1.13,1.77,1.82,3.54,2.23,4.84.4,1.3.54,2.14.48,2.15Z"/>
          <path class="cls-5" d="m189.68,59.99c-.14.05-.42-1.13-1.41-2.1-.99-.97-2.18-1.16-2.16-1.28,0-.06.32-.1.8.02.48.11,1.13.4,1.68.94.55.53.86,1.17,1,1.64.14.47.15.77.09.79Z"/>
          <path class="cls-5" d="m190.74,59.24c-.14.05-.44-1.08-1.41-2.01-.95-.95-2.07-1.25-2.04-1.37,0-.06.31-.07.77.07.45.14,1.06.45,1.58.97.53.52.84,1.12.99,1.57.15.45.16.75.1.76Z"/>
          <path class="cls-5" d="m193.31,59.93c-.12.07-.82-1.26-2.14-2.48-1.31-1.24-2.71-1.74-2.68-1.84.01-.06.4-.03.98.2.57.23,1.32.66,2.01,1.31,1.4,1.3,1.93,2.78,1.83,2.81Z"/>
          <path class="cls-5" d="m192.99,67.56c-.14.02-.3-1.61-1.23-3.33-.91-1.74-2.22-2.72-2.15-2.81.03-.05.42.12.93.55.51.43,1.14,1.13,1.62,2.04.49.9.73,1.81.82,2.46.09.66.06,1.07,0,1.08Z"/>
          <path class="cls-5" d="m196.43,67c-.14.02-.27-1.52-1.13-3.16-.84-1.65-2.01-2.64-1.94-2.73.06-.12,1.45.77,2.34,2.52.45.86.67,1.72.75,2.34.08.63.04,1.02-.02,1.02Z"/>
          <path class="cls-5" d="m198.69,68.5c-.13,0-.17-1.53-.79-3.28-.59-1.76-1.44-3.03-1.34-3.1.1-.09,1.15,1.12,1.77,2.96.64,1.84.48,3.45.36,3.43Z"/>
          <path class="cls-5" d="m200.69,67.81c-.14.01-.26-1.31-.82-2.79-.28-.74-.63-1.36-.93-1.78-.3-.42-.54-.64-.5-.69.03-.06.36.09.75.48.39.39.82,1.04,1.11,1.82.58,1.58.5,2.95.39,2.95Z"/>
          <path class="cls-5" d="m203.63,71.94c-.14,0-.2-1.48-.68-3.22-.46-1.75-1.17-3.04-1.07-3.1.11-.09,1.04,1.17,1.51,2.98.5,1.81.36,3.35.24,3.34Z"/>
          <path class="cls-5" d="m205.13,71.5c-.13,0-.24-1.43-.74-3.11-.48-1.69-1.12-2.96-1.02-3.03.11-.07.96,1.15,1.45,2.9.51,1.75.42,3.24.3,3.23Z"/>
          <path class="cls-5" d="m205.57,76.7c-.14-.03.54-2.73.41-6.13-.09-3.4-.95-6.04-.85-6.08.06-.02.37.61.67,1.7.3,1.09.58,2.63.64,4.36.13,3.47-.76,6.19-.87,6.14Z"/>
          <path class="cls-5" d="m211.46,68.81c.08.12-1.4,1.06-2.76,2.69-1.38,1.61-2.02,3.23-2.12,3.2-.06-.02.01-.46.29-1.12.28-.66.77-1.53,1.48-2.37,1.42-1.7,3.06-2.5,3.1-2.39Z"/>
          <path class="cls-5" d="m208.45,78.51c-.06,0-.1-.5.04-1.28.14-.78.51-1.85,1.2-2.86.68-1.02,1.5-1.78,2.14-2.25.64-.47,1.1-.67,1.13-.62.08.1-1.58,1.16-2.89,3.11-.65.97-1.05,1.95-1.27,2.69-.21.74-.29,1.22-.35,1.21Z"/>
          <path class="cls-5" d="m216.15,71.13c.05.13-1.51.7-2.92,2.1-1.43,1.38-2.11,2.89-2.22,2.84-.13-.03.39-1.7,1.9-3.17.74-.73,1.56-1.22,2.18-1.49.62-.27,1.04-.34,1.06-.29Z"/>
          <path class="cls-5" d="m213.08,76.07c-.05-.02.02-.35.24-.84.22-.49.63-1.13,1.23-1.7.6-.57,1.27-.94,1.79-1.11.52-.17.86-.17.87-.1.02.11-1.23.45-2.35,1.55-1.12,1.07-1.66,2.27-1.79,2.21Z"/>
          <path class="cls-5" d="m220.41,72.82c.03.14-2.04.31-4.04,1.74-2,1.41-2.99,3.21-3.1,3.14-.06-.03.12-.52.58-1.21.46-.69,1.21-1.58,2.26-2.31,1.04-.74,2.15-1.14,2.96-1.29.82-.16,1.33-.13,1.34-.07Z"/>
          <path class="cls-5" d="m221.53,74.32c.01.13-1.55.22-3.14,1.19-1.6.95-2.52,2.2-2.62,2.12-.12-.05.69-1.5,2.39-2.51.84-.5,1.71-.75,2.34-.84.63-.08,1.03-.02,1.03.03Z"/>
          <path class="cls-5" d="m222.78,75.95c.03.14-1.91.28-3.88,1.47-1.99,1.17-3.03,2.8-3.12,2.73-.06-.03.13-.49.61-1.11.47-.62,1.25-1.4,2.29-2.01,1.03-.62,2.09-.93,2.86-1.05.77-.12,1.26-.08,1.26-.03Z"/>
          <path class="cls-5" d="m224.41,77.26c.02.12-1.68.45-3.43,1.61-1.77,1.13-2.92,2.42-3.01,2.33-.11-.07.93-1.54,2.77-2.72.91-.59,1.84-.95,2.53-1.12.69-.17,1.14-.16,1.14-.11Z"/>
          <path class="cls-5" d="m226.79,78.14c0,.14-1.5.04-3.16.73-1.66.66-2.7,1.74-2.79,1.65-.11-.07.84-1.36,2.62-2.07.87-.36,1.74-.47,2.35-.47.62,0,.98.1.98.16Z"/>
          <path class="cls-5" d="m228.73,80.52c-.02.07-.47-.08-1.21-.1-.73-.02-1.75.15-2.79.59-2.09.89-3.49,2.18-3.58,2.07-.04-.04.26-.42.84-.92.59-.49,1.46-1.12,2.56-1.58,1.09-.47,2.21-.6,2.99-.49.78.1,1.21.37,1.18.42Z"/>
          <path class="cls-5" d="m229.11,81.89c0,.15-1.78-.06-3.82.52-1.02.29-1.88.71-2.47,1.07-.6.36-.93.64-.97.6-.05-.04.22-.42.79-.86.57-.44,1.46-.94,2.53-1.24,1.07-.3,2.08-.35,2.8-.31.72.05,1.15.16,1.14.22Z"/>
          <path class="cls-5" d="m231.55,83.71c-.03.07-.43-.08-1.1-.09-.66-.01-1.58.18-2.51.62-1.87.89-3.13,2.07-3.22,1.97-.09-.07,1.06-1.44,3.03-2.38.98-.46,2-.63,2.72-.53.72.09,1.1.36,1.08.41Z"/>
          <path class="cls-5" d="m234.17,85.65c-.03.06-.5-.15-1.31-.24-.8-.1-1.93-.03-3.13.28-2.42.64-4.2,1.71-4.26,1.59-.07-.09,1.63-1.36,4.15-2.03,1.25-.33,2.46-.35,3.3-.16.84.19,1.28.51,1.25.56Z"/>
          <path class="cls-5" d="m235.3,88.4c-.04.14-1.81-.55-4.08-.52-2.28,0-4.01.75-4.05.64-.03-.05.37-.33,1.09-.59.72-.26,1.78-.5,2.96-.5,1.18-.01,2.24.21,2.96.45.73.24,1.14.47,1.12.53Z"/>
          <path class="cls-5" d="m236.99,89.65c-.03.13-1.97-.24-4.37-.07-2.41.14-4.29.74-4.33.64-.06-.12,1.82-.94,4.3-1.09,2.48-.17,4.44.41,4.4.53Z"/>
          <path class="cls-5" d="m241.81,92.22c-.03.06-.53-.19-1.35-.5-.82-.31-1.98-.65-3.31-.84-2.66-.38-4.84-.04-4.86-.16-.04-.12,2.18-.68,4.92-.28,1.36.19,2.56.6,3.37.99.81.39,1.25.74,1.22.79Z"/>
          <path class="cls-5" d="m243.19,93.91c-.07.12-1.68-.85-3.92-1.15-2.24-.33-4.06.14-4.09.03-.02-.06.42-.26,1.17-.41.75-.15,1.82-.23,2.98-.06,1.16.16,2.17.54,2.85.89.68.35,1.04.66,1.01.71Z"/>
          <path class="cls-5" d="m247.07,96.54c-.06.12-2.11-.89-4.86-1.32-2.75-.46-5.01-.2-5.03-.31-.04-.13,2.28-.61,5.1-.14,2.83.44,4.86,1.67,4.79,1.76Z"/>
          <path class="cls-5" d="m249.2,101.3c-.05.05-.49-.39-1.28-.96-.79-.58-1.97-1.25-3.39-1.71-2.85-.93-5.35-.71-5.34-.84,0-.06.6-.2,1.61-.2,1,0,2.41.13,3.87.61,1.47.47,2.68,1.23,3.45,1.89.77.66,1.12,1.18,1.08,1.21Z"/>
          <path class="cls-5" d="m240.87,100.73c-.04.05-.49-.28-1.27-.7-.78-.42-1.91-.9-3.21-1.26-2.61-.73-4.85-.79-4.84-.92-.01-.12,2.27-.26,4.96.48,1.34.37,2.49.92,3.25,1.42.76.5,1.15.93,1.11.97Z"/>
          <path class="cls-5" d="m250.7,105.11c-.05.05-.46-.38-1.19-.97-.73-.6-1.79-1.35-3.06-2.02-2.54-1.35-4.85-1.89-4.82-2.01.01-.13,2.42.23,5.03,1.61,1.3.69,2.37,1.51,3.06,2.18.69.67,1.02,1.18.98,1.21Z"/>
          <path class="cls-5" d="m250.23,107.27c-.06.03-.34-.41-.89-1.03-.55-.62-1.41-1.39-2.49-2.05-2.17-1.34-4.22-1.84-4.18-1.96,0-.12,2.17.19,4.42,1.58,1.12.69,1.99,1.54,2.5,2.23.51.7.69,1.21.64,1.23Z"/>
          <path class="cls-5" d="m242.45,104.09c-.06.03-.32-.41-.91-.97-.58-.56-1.51-1.2-2.63-1.73-2.26-1.06-4.28-1.45-4.25-1.58,0-.12,2.11.08,4.44,1.17,1.16.54,2.12,1.26,2.67,1.92.56.65.72,1.17.67,1.19Z"/>
          <path class="cls-5" d="m249.03,109.24c-.06.03-.3-.3-.77-.77-.47-.47-1.17-1.05-2.03-1.59-1.71-1.09-3.28-1.68-3.23-1.81.03-.12,1.7.3,3.48,1.42.89.56,1.6,1.21,2.02,1.76.43.55.58.96.53.98Z"/>
          <path class="cls-5" d="m243.43,107.49c-.06.04-.37-.36-.97-.89-.59-.54-1.49-1.2-2.58-1.77-2.18-1.15-4.16-1.6-4.13-1.73.01-.12,2.08.14,4.34,1.33,1.12.59,2.03,1.32,2.59,1.94.56.62.79,1.09.74,1.12Z"/>
          <path class="cls-5" d="m249.57,113.08c-.07.02-.2-.4-.51-1.02-.31-.62-.83-1.42-1.57-2.19-1.47-1.54-3.03-2.37-2.96-2.49.04-.11,1.75.56,3.29,2.18.77.8,1.29,1.69,1.53,2.37.25.69.27,1.14.22,1.15Z"/>
          <path class="cls-5" d="m244.2,110.12c-.06.04-.32-.33-.82-.85-.5-.52-1.26-1.15-2.21-1.7-1.9-1.11-3.69-1.49-3.66-1.62,0-.12,1.89.07,3.88,1.22.99.57,1.76,1.29,2.22,1.88.46.59.63,1.03.58,1.06Z"/>
          <path class="cls-5" d="m246.29,115.16c-.13.06-.81-1.97-2.58-3.81-1.75-1.86-3.72-2.67-3.67-2.77.02-.06.55.06,1.31.45.77.38,1.77,1.05,2.68,2.01.92.95,1.53,2,1.87,2.79.34.79.44,1.32.38,1.33Z"/>
          <path class="cls-5" d="m240.91,114.39c-.14.02-.35-1.69-1.39-3.46-1.02-1.79-2.41-2.81-2.33-2.9.03-.05.43.13.98.58.54.45,1.21,1.16,1.75,2.09.54.93.83,1.87.96,2.56.12.69.1,1.12.04,1.13Z"/>
          <path class="cls-5" d="m239.6,115.82c-.14.04-.55-1.89-1.79-3.91-1.22-2.04-2.77-3.24-2.7-3.33.03-.05.48.17,1.09.7.61.52,1.36,1.35,2,2.4,1.29,2.11,1.51,4.14,1.4,4.14Z"/>
          <path class="cls-5" d="m237.95,115.93c-.14.03-.47-1.45-1.35-3.04-.44-.79-.95-1.44-1.36-1.86-.41-.43-.72-.63-.69-.69.02-.06.41.06.91.45.5.38,1.08,1.04,1.54,1.88.92,1.69,1.05,3.25.95,3.26Z"/>
          <path class="cls-5" d="m235.1,114.83c-.14.02-.35-1.51-1.26-3.13-.89-1.64-2.1-2.59-2.03-2.68.03-.05.4.12.88.53.48.41,1.08,1.08,1.55,1.93.96,1.72.97,3.36.86,3.35Z"/>
          <path class="cls-5" d="m232.47,114.94c-.15.02-.33-1.83-1.31-3.83-.48-1-1.07-1.82-1.54-2.38-.47-.56-.81-.86-.77-.92.03-.05.46.17,1.01.7.55.52,1.21,1.36,1.71,2.4,1.02,2.11,1,4.04.9,4.03Z"/>
          <path class="cls-5" d="m231.1,115.87c-.07,0-.07-.37-.17-.94-.1-.56-.34-1.33-.71-2.12-.75-1.6-1.66-2.75-1.56-2.83.08-.09,1.18.97,1.97,2.64.39.83.6,1.67.62,2.28.03.61-.09.98-.14.97Z"/>
          <path class="cls-5" d="m229.02,116.41c-.07,0-.06-.35-.21-.88-.14-.53-.45-1.23-.86-1.97-.83-1.48-1.67-2.6-1.56-2.69.09-.08,1.1.93,1.96,2.47.43.77.7,1.54.78,2.12.08.59-.05.96-.11.94Z"/>
          <path class="cls-5" d="m226.48,115.51c-.07,0-.11-.43-.34-1.08-.22-.65-.62-1.51-1.17-2.41-1.1-1.81-2.22-3.13-2.12-3.22.08-.08,1.38,1.12,2.51,2.99.56.93.94,1.86,1.09,2.56.15.71.08,1.16.03,1.16Z"/>
          <path class="cls-5" d="m222.94,111.88c-.07,0-.17-.4-.44-1.03-.26-.63-.69-1.47-1.24-2.36-1.09-1.79-2.14-3.14-2.04-3.23.09-.08,1.31,1.16,2.43,2.99.56.91.96,1.81,1.15,2.49.2.68.2,1.13.14,1.14Z"/>
          <path class="cls-5" d="m219.95,111.97c-.07.01-.18-.44-.43-1.13-.24-.7-.65-1.63-1.21-2.61-1.12-1.96-2.35-3.34-2.26-3.42.08-.09,1.5,1.18,2.66,3.2.58,1,.95,2,1.12,2.74.18.74.18,1.22.12,1.22Z"/>
          <path class="cls-5" d="m215.42,110.43c-.07,0-.18-.48-.43-1.23-.25-.76-.65-1.78-1.21-2.86-1.12-2.16-2.35-3.72-2.26-3.8.09-.09,1.51,1.38,2.66,3.59.57,1.1.95,2.18,1.12,2.98.18.8.18,1.31.12,1.32Z"/>
          <path class="cls-5" d="m208.53,107.53c-.14.02-.46-1.8-1.3-3.89-.82-2.11-1.95-3.57-1.87-3.63.04-.04.41.26.87.87.46.61.99,1.52,1.42,2.59.87,2.16.99,4.05.88,4.06Z"/>
          <path class="cls-5" d="m201.82,104.35c-.14.03-.58-1.8-1.51-3.9-.46-1.05-.98-1.95-1.38-2.59-.4-.64-.69-1-.65-1.04.04-.05.43.25.91.86.48.6,1.05,1.51,1.53,2.59.96,2.16,1.21,4.06,1.1,4.08Z"/>
          <path class="cls-5" d="m194.47,100.27c-.14.02-.39-1.83-1.2-3.94-.41-1.05-.92-1.93-1.37-2.51-.45-.58-.82-.85-.79-.9.03-.06.5.13,1.03.69.54.55,1.13,1.46,1.55,2.55.84,2.19.88,4.1.77,4.1Z"/>
          <path class="cls-5" d="m191.12,97.19c-.07.01-.2-.5-.56-1.26-.36-.76-.97-1.75-1.81-2.72-1.68-1.95-3.42-3.17-3.34-3.28.06-.1,1.95.97,3.69,2.98.87,1,1.47,2.07,1.76,2.89.3.82.32,1.37.26,1.38Z"/>
          <path class="cls-5" d="m186.49,93.29c-.11.06-.91-1.28-2.46-2.33-1.53-1.08-3.02-1.54-2.98-1.66.02-.12,1.62.16,3.24,1.29.8.56,1.42,1.23,1.77,1.76.36.53.48.91.43.94Z"/>
          <path class="cls-5" d="m188.31,96.65c-.06.02-.26-.38-.71-.93-.45-.56-1.16-1.25-2.03-1.94-1.73-1.37-3.3-2.28-3.24-2.39.05-.11,1.74.63,3.52,2.04.89.7,1.6,1.47,2,2.1.41.63.51,1.11.46,1.12Z"/>
          <path class="cls-5" d="m183.5,96.28c-.06.03-.27-.36-.7-.92-.42-.56-1.08-1.28-1.91-1.96-1.66-1.38-3.25-2.17-3.2-2.28.04-.11,1.76.51,3.49,1.93.86.71,1.51,1.5,1.88,2.13.37.63.49,1.08.43,1.1Z"/>
          <path class="cls-5" d="m181.42,95.38c-.05.04-.33-.24-.83-.64-.49-.41-1.2-.92-2.03-1.41-1.67-.99-3.17-1.54-3.13-1.66.03-.12,1.63.25,3.36,1.27.86.51,1.57,1.09,2.02,1.57.45.48.65.84.61.88Z"/>
        </g>
        <path class="cls-1" d="m150.61,164.26c-.05,0-.22-.74-.25-1.97,0-.62.03-1.36.21-2.16.18-.8.52-1.69,1.17-2.43.65-.74,1.52-1.19,2.33-1.38.81-.2,1.57-.19,2.18-.14,1.24.13,1.94.45,1.92.51-.02.07-.75-.14-1.95-.19-.6-.02-1.31.01-2.06.22-.74.2-1.51.61-2.09,1.28-.58.66-.91,1.47-1.11,2.23-.19.76-.26,1.47-.3,2.07-.06,1.2,0,1.96-.07,1.96Z"/>
        <path class="cls-1" d="m155.31,177.13s-.41.02-.94-.43c-.53-.43-1.1-1.26-1.51-2.39-.42-1.12-.72-2.52-.9-4.08-.09-.78-.15-1.6-.18-2.46-.03-.85-.05-1.75.09-2.66.13-.91.4-1.79.84-2.56.44-.77,1.05-1.4,1.73-1.84,1.38-.88,2.88-1.04,4.06-1.05,1.2,0,2.15.18,2.8.33.65.15.99.29.98.32,0,.03-.37-.05-1.01-.15-.65-.1-1.59-.22-2.76-.18-1.15.05-2.57.25-3.84,1.08-.63.41-1.18,1-1.58,1.71-.4.71-.65,1.54-.78,2.41-.13.87-.12,1.73-.09,2.58.02.84.07,1.66.15,2.43.15,1.54.41,2.92.79,4.02.37,1.1.87,1.92,1.33,2.36.46.46.83.53.83.56Z"/>
        <path class="cls-1" d="m158.49,192.28c-.08,0-.19-1.16-.64-2.99-.46-1.8-1.34-4.33-3.23-6.47-.91-1.09-2.1-1.77-3.21-2.33-1.11-.56-2.15-1.03-2.97-1.54-1.67-1-2.27-2.12-2.22-2.13.06-.05.73.96,2.38,1.85.82.46,1.85.89,2.99,1.44,1.12.54,2.4,1.25,3.36,2.4,1.97,2.23,2.82,4.85,3.21,6.7.38,1.88.38,3.06.33,3.06Z"/>
        <path class="cls-1" d="m174.85,256.66s-.39-.75-1.31-1.94c-.92-1.19-2.42-2.78-4.22-4.8-1.8-2.02-3.9-4.47-6.14-7.26-.56-.7-1.13-1.41-1.71-2.16-.58-.76-1.09-1.58-1.54-2.46-.9-1.76-1.49-3.73-1.82-5.79-.65-4.13-.22-8.14.59-11.63.82-3.5,2.03-6.52,3.24-8.96.63-1.21,1.28-2.24,1.77-3.19.5-.94.85-1.8,1.04-2.52.39-1.46.18-2.31.24-2.31,0-.01.27.84-.07,2.35-.17.75-.5,1.63-.99,2.59-.48.97-1.11,2.02-1.71,3.22-1.15,2.43-2.33,5.44-3.12,8.91-.78,3.46-1.19,7.42-.55,11.47.32,2.02.9,3.95,1.77,5.66.83,1.74,2.07,3.14,3.17,4.56,2.22,2.8,4.28,5.27,6.05,7.31,1.77,2.05,3.24,3.67,4.12,4.91.89,1.24,1.19,2.04,1.17,2.04Z"/>
        <path class="cls-1" d="m255.35,142.74c-.05.02-.61-.91-1.54-2.54-.59-2.26-1.55-5.53-2.92-9.12-1.23-3.22-2.55-6.06-3.57-8.08-1.02-2.02-1.73-3.23-1.68-3.26.05-.04.87,1.12,1.96,3.11,1.1,1.99,2.47,4.82,3.71,8.07,1.38,3.59,2.3,6.96,2.78,9.17.82,1.6,1.32,2.62,1.27,2.64Z"/>
        <path class="cls-1" d="m254.84,141.56s.45.64,1.06,1.89c.59,1.25,1.34,3.15,1.56,5.6.11,1.22.07,2.57-.21,3.97-.27,1.4-.77,2.84-1.49,4.24-.35.69-.71,1.41-1.01,2.15-.3.74-.56,1.53-.56,2.32,0,.39.08.79.28,1.11.24.39.37.84.43,1.28.06.44.06.89.02,1.33-.02.22-.05.44-.08.66l-.06.33-.05.23.43.59.47.69c.31.46.61.94.9,1.42.58.96,1.12,1.95,1.61,2.96.99,2.03,1.66,4.19,2.13,6.33.93,4.3.91,8.53.54,12.12-.37,3.6-1.07,6.6-1.62,8.68-.56,2.08-1.08,3.65-1.08,3.65-.02.08-.07-.29-.24-.34-.17-.06-.29-.16-.26-.24,0,0,.4-1.18.97-3.24.56-2.06,1.26-5.02,1.65-8.58.38-3.55.42-7.72-.46-11.95-.45-2.11-1.1-4.24-2.05-6.23-.47-1-1-1.98-1.57-2.93-.28-.48-.57-.95-.87-1.41l-.46-.69-.53-.75.07-.25.04-.15.06-.31c.04-.21.07-.42.08-.63.04-.42.04-.84,0-1.24-.05-.41-.16-.8-.36-1.13-.25-.4-.33-.87-.33-1.31.02-.89.3-1.7.61-2.46.32-.76.69-1.47,1.05-2.17.73-1.37,1.24-2.78,1.51-4.15.28-1.37.34-2.69.25-3.89-.18-2.41-.89-4.31-1.44-5.57-.57-1.26-.98-1.93-.95-1.94Z"/>
        <path class="cls-1" d="m242.24,169.47s1.58.48,4.13-3.51c1.09-1.71,2.79-4.09,4.93-4.51,2.68-.53,4.04,3.23,3.18,5.27,0,0-.62.96-2.2,1.86,0,0,2.34-2.34,1.03-3.85-1.31-1.51-3.64-1.58-5.16,1.03-1.51,2.61-2.61,3.71-3.51,4.2-.89.48-1.51.34-2.41-.48Z"/>
        <path class="cls-1" d="m243.27,169.85s.61,1.53,2.62,1.09c2.01-.44,1.87-2.72.54-3.23,0,0-1.05,1.84-3.16,2.14Z"/>
        <path class="cls-1" d="m245.88,220.87s.24-.21.79-.45c.27-.12.63-.22,1.06-.26.43-.04.93,0,1.47.1,1.09.21,2.36.63,3.81,1.11.37.12.73.27,1.12.33.39.07.8.08,1.23.07.84-.04,1.75-.22,2.42-.84.69-.6,1.11-1.5,1.36-2.46.25-.97.34-2.01.37-3.08.06-2.14-.17-4.4-.57-6.71-.41-2.3-.93-4.68-1.61-7.04-.69-2.36-1.58-4.7-2.55-7.01-.98-2.3-2.01-4.59-3.08-6.81l-.2-.41c-.04-.07-.07-.14-.1-.19l-.12-.18c-.17-.25-.35-.51-.5-.8-.04-.07-.08-.15-.11-.25-.02-.05-.04-.16-.04-.18v-.03s0-.06,0-.06v-.05c0-.15,0-.29,0-.44,0-.29-.04-.58-.1-.87-.22-1.15-.72-2.23-1.26-3.25-2.2-4.13-5.36-7.25-8.18-9.68-1.43-1.22-2.77-2.28-4-3.2-.61-.47-1.18-.97-1.6-1.54-.43-.56-.68-1.21-.75-1.81-.1-1.21.23-2.07.43-2.64.22-.57.38-.85.37-.85.05-.09.21-.1.37-.02.16.08.25.22.21.31,0,0-.15.27-.35.8-.19.52-.49,1.34-.4,2.34.05.49.25,1.02.62,1.51.37.5.88.96,1.48,1.42,1.21.92,2.58,2,4,3.24,2.84,2.46,6.04,5.65,8.27,9.88.55,1.05,1.07,2.17,1.3,3.41.06.31.09.62.1.94,0,.16,0,.32,0,.48v.06s.08.05-.08,0c.03,0,.08.01.08.02,0,.06,0,.02.01.04.02.05.04.11.08.17.13.25.3.5.47.76l.13.2c.05.08.08.16.12.22l.2.42c1.06,2.24,2.08,4.53,3.05,6.85.96,2.32,1.85,4.68,2.53,7.07.67,2.39,1.17,4.77,1.57,7.1.38,2.33.6,4.61.52,6.78-.04,1.08-.14,2.14-.41,3.14-.27.99-.71,1.94-1.46,2.58-.37.32-.8.55-1.25.68-.45.13-.9.17-1.33.19-.43.01-.86-.01-1.27-.09-.42-.07-.78-.24-1.14-.35-1.44-.5-2.7-.95-3.77-1.17-.53-.11-1.02-.16-1.44-.13-.42.02-.77.12-1.04.22-.54.21-.8.41-.81.39Z"/>
        <path class="cls-1" d="m249.83,139.94c.4-.49.88-.91,1.49-1.22,1.31-.67,3.1-.97,4.29.12.94.86,1.89,2.09,2.34,3.28.9,2.34-1.51,1.59-2.92,1.7-1.59.12-3.37,1.21-4.44,2.35-1.45,1.54-8.52,6.53-9.88,8.61,0,0-.54,1.45-1.45-.45-.69-1.45-.94-3.94.56-4.91.8-.52,1.82-.57,2.7-.9,1.14-.43,2.26-1.3,3-2.26.94-1.22,1.82-2.5,2.66-3.79.56-.86,1.02-1.76,1.65-2.52Z"/>
        <path class="cls-1" d="m154.11,267.07s2.02-.82,5.75-1.41c3.73-.58,9.16-.87,15.6-.15,3.22.35,6.68.93,10.3,1.7,3.63.76,7.39,1.86,11.23,3.11,3.86,1.21,7.76,2.71,11.88,3.68,4.11.99,8.38,1.6,12.67,1.67,2.15,0,4.3.02,6.34-.54,2.05-.53,4-1.42,5.63-2.73,1.64-1.3,3.03-2.87,4.23-4.54,1.2-1.68,2.2-3.46,3-5.29.8-1.83,1.26-3.75,1.61-5.65.17-.95.34-1.9.47-2.83.13-.93.23-1.87.33-2.79.2-1.84.42-3.65.86-5.36.47-1.71,1.08-3.28,1.76-4.77.69-1.48,1.48-2.85,2.41-4.03.97-1.12,1.66-2.28,2.27-3.43.59-1.15,1.06-2.28,1.39-3.34.32-1.06.52-2.08.41-2.94,0-.11-.04-.21-.06-.31-.03-.12-.06-.23-.08-.34-.05-.23-.08-.45-.12-.66-.06-.43-.09-.83-.1-1.21-.03-.75,0-1.38.04-1.89.08-1.02.23-1.88.19-1.76.03-.18.18-.04.36,0,.18.04.31.06.28.23,0,0-.11.59-.19,1.58-.04.49-.07,1.11-.05,1.82.01.36.04.74.09,1.14.03.2.06.41.11.62.02.11.05.21.07.32.02.12.06.25.07.38.13,1.03-.1,2.1-.43,3.21-.34,1.11-.83,2.26-1.44,3.44-.31.59-.64,1.19-1.03,1.78-.19.3-.4.6-.62.89-.23.3-.47.57-.69.85-.89,1.14-1.67,2.46-2.35,3.91-.67,1.44-1.28,3.02-1.74,4.67-.43,1.66-.65,3.44-.86,5.28-.11.92-.21,1.85-.34,2.8-.14.95-.3,1.89-.48,2.85-.36,1.92-.83,3.88-1.66,5.76-.82,1.87-1.85,3.68-3.07,5.38-1.23,1.7-2.65,3.3-4.34,4.63-1.69,1.35-3.71,2.26-5.82,2.8-1.05.27-2.14.44-3.23.49-1.08.05-2.16.06-3.24.04-4.33-.08-8.63-.71-12.76-1.72-4.14-.99-8.05-2.51-11.89-3.74-3.83-1.26-7.57-2.37-11.19-3.15-3.61-.79-7.06-1.38-10.27-1.75-6.41-.76-11.83-.52-15.55.02-3.73.55-5.76,1.33-5.77,1.28Z"/>
        <path class="cls-1" d="m231.51,210.63s-.23.11-.67.11c-.43,0-1.11-.08-1.79-.54-.69-.45-1.24-1.34-1.43-2.38-.2-1.02-.2-2.25.33-3.38.53-1.13,1.45-1.93,2.33-2.47.89-.55,1.78-.87,2.49-1.13.68-.3,1.22-.63,1.6-.83.38-.21.59-.31.61-.28.02.03-.17.18-.52.43-.36.25-.85.61-1.57.97-.72.3-1.56.64-2.39,1.19-.83.54-1.66,1.29-2.14,2.31-.49,1.02-.5,2.14-.33,3.11.16.97.61,1.77,1.21,2.2.59.44,1.21.56,1.62.62.42.05.66.04.66.07Z"/>
        <path class="cls-1" d="m229.07,208.41s6.78-2.55,11.01,5.58c0,0-4.28-5.64-8.08-4.72,0,0-2.22.65-2.93-.87Z"/>
        <g>
          <path class="cls-2" d="m205.51,153.26s5.14,8.36,14.87,15.12l.68.93s2.04.25,4.83-.8c0,0-1.11,5.88.56,7.68,0,0-7.31,1.24-21.19-7.93,0,0-.5-11.83.25-14.99Z"/>
          <path class="cls-11" d="m218.87,166.78c-1.12-1.09-2.46-2.04-3.78-2.73-2.34-1.22-4.6-1.62-5.3-.51l-1.07.87s-.5,2.97,1.37,4.14l.2.12,2.91,1.74s5.55,3.51,10.89.12c0,0-2.11-.72-5.21-3.76Z"/>
          <path class="cls-4" d="m209.89,161.67l-3.07-3.11s-.57,7.95-.2,8.45c.37.5,3.82,3.17,16.8,7.65,0,0,.67-4.12.67-4.13-.04.25-1.36.86-1.54.92-1.21.44-2.57.55-3.86.5-2.23-.08-3.59-.43-5.48-1.55-.74-.43-2.4-1.28-3.07-1.81,0,0-1.98-1.4-1.41-4.2.57-2.81,1.17-2.74,1.17-2.74Z"/>
          <path class="cls-1" d="m224.09,170.54s-1.65.98-3.85-1.16c-1.32-1.28-2.74-2.53-4.23-3.61-1.19-.87-2.5-2.07-4.01-2.28-2.01-.28-3.6,1.59-2.78,3.45.75,1.68,2.46,2.52,3.98,3.49,0,0-3.24-.37-4.65-2.45-.7-1.03-1.18-2.51-.97-3.75.26-1.55,1.58-2.8,3.16-2.92,2.47-.18,4.55,1.57,6.21,3.17,1.75,1.69,3.42,3.49,5.38,4.94.56.41,1.14.8,1.75,1.12Z"/>
          <path class="cls-1" d="m224.09,170.54s-1.17,2.38-3.77,1.35c-2.44-.97-.78-3.49-.78-3.49,0,0,2.95,2.09,4.55,2.14Z"/>
        </g>
        <path class="cls-1" d="m200.81,142.59c.74-1.2,2.22-2.58,2.61-2.95,1.45-1.38,3.46-2.66,5.54-2.64,1.26,0,2.45.65,3.33,1.53,5.03,5.03,7.82,8.64,13.19,10.34,1.68.53,3.39,1.56,3.84,3.39.14.59.11,1.24.04,1.84-.06.55-.17,1.58-.78,1.81-.81.32-1.54-.8-2.02-1.25-1.73-1.62-4.1-2.31-6.05-3.61-2.57-1.71-4.94-3.5-7.29-5.49-1.84-1.56-3.95-2.41-6.39-2.46-1.13-.02-2.28.16-3.35.55-.71.26-1.52.93-2.33.79-1.03-.18-.89-.96-.34-1.85Z"/>
        <path class="cls-1" d="m156.91,380.99c-4.04-58.98,10.98-115.28,11.13-115.85l1.12.03c-.15.57-15.16,57.09-11.14,115.89l-1.11-.07Z"/>
        <path class="cls-1" d="m-.28,411.24l-1.07-.17c1.08-6.68,2.88-13.81,5.48-21.8,3.78-11.6,8.7-23.64,14.64-35.76,6.12-12.5,12.19-22.64,19.13-31.93,5.82-7.79,11.23-16.03,16.46-24.01,1.07-1.63,2.14-3.25,3.21-4.88,3.03-4.59,6.23-9.6,10.08-15.78,26.98-41.08,49.4-101.59,49.62-102.2l1.41.54c-.22.61-23.08,61.07-50.12,102.24-3.84,6.18-7.05,11.2-10.08,15.79-1.07,1.62-2.14,3.25-3.21,4.88-5.24,7.99-10.67,16.25-16.5,24.06-6.9,9.23-12.94,19.33-19.03,31.76-5.91,12.08-10.82,24.07-14.58,35.62-2.58,7.93-4.36,15.01-5.44,21.64Z"/>
        <path class="cls-6" d="m-4.55,404.21l-1.62-.22c.74-5.53,3.84-17.94,3.97-18.46,10.99-38.45,31.93-64.73,32.14-65,2.44-3.39,5.02-6.85,7.51-10.19,5.88-7.88,11.96-16.04,17.13-24.47,7.6-12.4,14.75-25.37,21.66-37.91l.75-1.36c24.2-43.88,33.5-74.32,33.6-74.62l1.94-.1c-.09.3-9.82,31.46-34.11,75.51l-.75,1.36c-6.92,12.56-14.08,25.54-21.7,37.98-5.21,8.5-11.31,16.68-17.21,24.6-2.49,3.34-5.06,6.79-7.52,10.2-.24.29-20.97,26.33-31.86,64.43-.03.1-3.2,12.82-3.93,18.26Z"/>
        <path class="cls-6" d="m-3.5,385.95l-1.57-.45c10.98-38.43,31.92-64.71,32.13-64.97,2.44-3.39,5.02-6.85,7.51-10.19,5.88-7.88,11.96-16.04,17.12-24.47,7.6-12.4,14.75-25.37,21.66-37.91l.75-1.36c24.2-43.88,33.5-74.32,33.6-74.62h1.72c-.09.31-9.6,31.36-33.89,75.41l-.75,1.36c-6.92,12.56-14.08,25.54-21.7,37.98-5.21,8.5-11.31,16.68-17.21,24.6-2.49,3.34-5.06,6.79-7.52,10.2-.24.29-20.97,26.33-31.86,64.43Z"/>
        <path class="cls-6" d="m-6.86,385.97l-1.57-.45c10.98-38.43,31.92-64.71,32.13-64.97,2.44-3.39,5.02-6.84,7.51-10.19,5.88-7.89,11.96-16.04,17.13-24.48,7.59-12.39,14.74-25.35,21.65-37.89l.77-1.39c24.2-43.88,33.5-74.32,33.6-74.62l1.56.47c-.09.3-9.44,30.89-33.73,74.94l-.77,1.39c-6.92,12.55-14.07,25.52-21.68,37.95-5.21,8.5-11.31,16.69-17.21,24.6-2.49,3.34-5.06,6.79-7.52,10.2-.23.29-20.97,26.33-31.86,64.43Z"/>
        <path class="cls-6" d="m5.78,335.17l-1.28-1.02c40-50.1,62.83-91.01,74.95-116.5,13.1-27.58,16.8-43.5,16.84-43.66l1.86-.25c-.04.16-4.04,16.87-17.22,44.61-12.15,25.57-35.05,66.6-75.14,116.82Z"/>
        <path class="cls-6" d="m2.25,335.45l-1.28-1.02c40-50.11,63.06-90.94,75.36-116.37,13.31-27.52,17.21-43.37,17.25-43.53l1.88-.27c-.04.16-4.28,16.84-17.66,44.51-12.33,25.51-35.45,66.46-75.55,116.68Z"/>
        <path class="cls-6" d="m-1.57,335.99l-1.27-1.03c41.26-50.95,64.25-91.73,76.27-116.98,13-27.31,16.3-42.74,16.33-42.9l1.87-.11c-.03.15-3.64,16.23-16.72,43.71-12.06,25.33-35.11,66.23-76.47,117.3Z"/>
        <path class="cls-1" d="m-.93,197.24l-.6-.91c.12-.08,12.11-7.94,28.25-14.21,14.89-5.78,36.45-11.34,54.76-5.1,1.76-.58,16.27-5.17,32.02-5.94.15,0,3.75.02,4.19,2.19.29,1.43,2.08,2.04,2.1,2.05l-.34,1.03c-.1-.03-2.41-.83-2.82-2.87-.22-1.08-2.36-1.32-3.09-1.32-16.55.81-31.73,5.89-31.88,5.94l-.18.06-.18-.06C46.74,166.17-.46,196.93-.93,197.24Z"/>
        <g>
          <path class="cls-1" d="m83.49,177.16s1.36,32.1-47.6,101.46C-3.12,333.88-4.1,414.1-4.1,414.1v-145.53l9.45,25.59s1.1-10.93-2.28-26.42c0,0,3.62,5.11,3.54,26.5,0,0,6.61-6.61,12.5-9.44,0,0,9.04-21.63,8.02-33.19,0,0-6.06,16.12-6.53,17.85-.47,1.73-5.27,4.8-6.29-3.22,0,0,1.57,3.15,3.62,1.02,2.04-2.12,7.87-14,8.49-16.59.63-2.59,2.52-1.02,3.15-.55,2.08,1.56,1.05,4.62.24,6.48-2.9,6.65-4.53,13.93-6.68,20.85-1.15,3.7-2.41,7.38-3.62,11.06,0,0,5.82-5.03,12.58-7.39,0,0,39.43-50.88,47.78-99.49l3.63-4.44Z"/>
          <path class="cls-5" d="m.2,348.68c-.12-.03.62-3.36,2.05-8.69,1.43-5.33,3.57-12.65,6.13-20.66,5.13-16.04,9.95-28.81,10.18-28.72.24.08-4.2,12.98-9.32,29-2.56,8.01-4.8,15.28-6.38,20.56-1.58,5.28-2.54,8.55-2.66,8.52Z"/>
          <path class="cls-5" d="m-.6,328.92c-.26-.04.54-6.73,2.08-14.88,1.52-8.16,3.07-14.71,3.31-14.66.25.05-.9,6.67-2.42,14.82-1.54,8.14-2.74,14.75-2.97,14.72Z"/>
        </g>
        <path class="cls-1" d="m36.71,420.85s-8.58,4.13-9.56,3.69c-.6-.27-.84-3.84-.91-4.38-.49-3.51-.74-7.06-.97-10.59-.81-12.46-.77-24.95.56-37.37.44-4.14,1.01-8.26,1.64-12.37.68-4.43,1.18-8.88,2.24-13.24.82-3.36,1.58-6.75,2.06-10.18.25-1.79.48-3.62.37-5.43l1.4-2.35s.45,11.26-2.16,17.45c-2.61,6.19-2.93,21.51-2.93,21.51l-2.39,27.49s.11,15.1,1.63,22.92c0,0,.33,2.93,1.85,3.04,1.52.11,5.11-.76,7.17-.22Z"/>
        <path class="cls-1" d="m87.88,431.71s4.68-.98,7.25.3c1.63.81,3.29,1.52,5.07,1.92,4.35.97,8.85.74,13.25.28,4.31-.45,8.67-.87,12.93-1.69,2.4-.46,4.78-1.13,7.04-2.08,2.3-.97,3.88-2.84,4.4-5.31.38-1.81,2.49-4.61,2.49-4.61,0,0-1.66,4.08-1.44,6.42.23,2.34-1.36,3.32-2.19,3.78-.83.45-15.03,5.59-36.34,4.61,0,0-5.67,0-12.46-3.63Z"/>
        <path class="cls-1" d="m-1.75,416.45c1.89,4.6,3.02,9.33,5.59,13.66,4.37,7.36,12.1,16.1,20.39,18.92,14.26,4.85,32.83-2.92,45.11-9.92,14.33-8.16,21.58-9.79,24.3-9.79,0,0-5.44,2.54-9.43,6.17-3.99,3.63-18.68,18.56-21.22,23.15H-1.75v-42.19Z"/>
        <g>
          <path class="cls-5" d="m104.05,377.71l.29-1.13s.7-2.75.33-6.04c0,0,0-4.07-2.09-5.55,0,0-1.13-.82-1.58-.98l.12-.24s1.18-1.45,1.4-2.45c.21-1-.47-4.9-.82-5.34,0,0-1.45-2.96-2.48-3.97-1.03-1.01-3.13-2.13-5.31-2.12-2.18.01-4.92.67-4.92.67l-.69-.25s-2.23-1.98-4.71-1.84c0,0-2.94.02-3.12-.03,0,0-.5-.97-.44-1.26.06-.29-.13-2.22.33-2.89.46-.67,2.02-4.16,2.02-4.16l2.13-4.02,1.44-3.79.72-2.27.88-3.79s.38-3.8.15-4.72c-.22-.92-1.33-4.73-3.22-5.73-1.89-1-1.94-.16-2.18.19-.25.35-1.08,2.29-1.08,2.29l-1.07,4.45s-.25,1.66-.14,1.93l-3.01,3.35-2.78,3.7-4.1,5.67-5.61,7.39-4.92,5.91-4.59,4.83s-4.33,4.02-6.04,4.98c0,0-3.38,1.49-5.92,1.43-2.54-.06-11.24-.91-11.24-.91l-2.93-.59c-3.04,19.39-2.68,34.38-2.56,37.4l3.39.37,10.15,1.19s6.9.86,9.86,1.81c2.96.94,10.85,3.21,10.85,3.21,0,0,8.14,2.75,14.3,1.73l8.71-.53s6.62.04,9-.95c2.38-.99,5.05-1.19,8.67-5.22,0,0,1.68-2.55,1.36-5.26,0,0-.21-2.3-.74-2.84l1.97-1.23s1.69-3.53,2.14-6.78c.45-3.25-1.36-5.18-1.89-5.61Z"/>
          <g>
            <path class="cls-1" d="m105.8,380.02c-.34-.89-.81-1.5-1.17-1.88-.25-.27-.45-.41-.55-.47.03-.05.07-.1.1-.16.27-.47.45-1.01.58-1.59.26-1.16.32-2.46.27-3.8-.05-1.35-.21-2.62-.43-3.77-.11-.56-.21-1.13-.45-1.63-.23-.49-.54-.89-.85-1.21-.62-.65-1.24-1.03-1.68-1.27-.27-.15-.47-.23-.59-.26.15-.14.32-.31.5-.52.33-.39.71-.92.94-1.63.24-.71.31-1.57.19-2.49-.24-1.82-.82-3.99-2.18-6.05-.68-1.01-1.56-2-2.75-2.68-1.2-.67-2.62-.89-4.03-.87-1.41.02-2.77.28-4.05.5-.3.05-.67.11-.88.07,0,0-.08-.04-.14-.08l-.19-.13-.39-.28c-.52-.37-1.07-.7-1.64-.94-1.14-.5-2.33-.67-3.42-.63-.55,0-1.07.12-1.53.12-.4,0-.77-.08-1.12-.21-.05-.11-.1-.25-.16-.44-.13-.45-.21-1.15-.05-1.99.29-1.7,1.43-3.84,2.78-6.13.66-1.15,1.33-2.25,1.73-3.37.41-1.09.75-2.07,1.04-2.9.56-1.66.95-2.96.89-2.98-.06-.02-.55,1.24-1.19,2.87l-1.12,2.86c-.4,1.06-1.07,2.14-1.73,3.3-1.35,2.29-2.48,4.51-2.7,6.31-.13.89,0,1.64.2,2.1.05.12.1.23.15.31,0,0-.02,0-.03-.01-.8-.36-1.37-.97-1.78-1.54-.42-.57-.7-1.13-.91-1.58-.41-.92-.55-1.47-.58-1.46-.03,0,.05.57.42,1.53.19.48.45,1.05.86,1.66.41.6.99,1.26,1.86,1.68.43.21.92.33,1.44.35.53.02,1.03-.09,1.55-.09,1.04-.02,2.17.16,3.24.63.54.24,1.05.55,1.55.91l.38.28.2.14c.08.05.13.1.28.14.42.07.71-.02,1.05-.06,1.3-.22,2.62-.47,3.99-.48,1.36-.02,2.7.19,3.81.81,1.1.62,1.96,1.56,2.62,2.53,1.33,1.96,1.93,4.09,2.21,5.85.13.89.08,1.7-.12,2.37-.2.67-.53,1.2-.84,1.6-.62.79-1.08,1.13-1.05,1.17,0,0,.25-.14.63-.49.1.07.28.18.55.37.4.28.97.69,1.53,1.33.28.32.55.7.74,1.15.2.44.28.97.38,1.54.19,1.13.33,2.39.38,3.71.05,1.32,0,2.59-.22,3.7-.22,1.11-.66,2.03-1.38,2.53-.67.57-1.19,1.06-1.52,1.43-.34.36-.46.63-.41.65.01,0,.17-.2.54-.53.36-.32.91-.77,1.6-1.3.17-.13.37-.27.54-.46.12-.13.23-.28.33-.43.08.09.23.26.45.54.31.4.72,1.02,1,1.88.29.85.41,1.93.22,3.11-.09.58-.28,1.2-.43,1.84l-.5,1.98c-.18.67-.37,1.33-.61,1.93-.24.59-.56,1.14-1.04,1.35-1.13.5-2.06,1.15-2.76,1.76-.7.62-1.17,1.24-1.41,1.7-.25.46-.3.75-.28.76.06.03.46-1.08,1.9-2.22.4-.32.86-.64,1.38-.95.03.1.13.38.25.86.15.6.33,1.5.3,2.66-.03,1.16-.32,2.6-1.19,4-.86,1.4-2.31,2.69-4.13,3.69-1.82,1.01-4.01,1.77-6.39,2.34-2.39.57-5.04.31-7.83.39-2.79.12-5.69.45-8.71.6-3.01.16-6.14.09-9.26-.58-3.12-.69-6.09-1.67-8.98-2.57-2.88-.91-5.7-1.75-8.43-2.3-5.47-1.11-10.47-1.53-14.63-2.1-2.08-.27-3.98-.49-5.65-.58-.67-.04-1.29-.06-1.89-.07,0,.07,0,.15,0,.22.59.02,1.21.05,1.87.1,1.66.12,3.55.36,5.63.65,4.16.61,9.16,1.06,14.59,2.19,2.71.56,5.5,1.4,8.38,2.32,2.88.91,5.87,1.9,9.02,2.59,3.17.68,6.35.74,9.38.58,3.03-.16,5.93-.5,8.7-.63,2.75-.09,5.44.16,7.9-.44,2.41-.59,4.61-1.38,6.46-2.43,1.85-1.04,3.32-2.38,4.19-3.84.88-1.46,1.15-2.95,1.15-4.13,0-1.19-.21-2.1-.39-2.69-.15-.49-.28-.76-.33-.84.41-.24.84-.47,1.33-.67.66-.29,1.02-.95,1.29-1.56.26-.63.45-1.3.64-1.98.18-.68.34-1.35.49-2,.14-.65.32-1.26.41-1.88.18-1.24.01-2.4-.33-3.28Z"/>
            <path class="cls-1" d="m44.02,362.15c1.59-.04,3.18-.51,4.63-1.27,2.93-1.53,5.3-3.99,7.64-6.47,1.16-1.25,2.35-2.45,3.47-3.7,1.12-1.24,2.2-2.48,3.23-3.73,2.06-2.49,3.96-4.96,5.72-7.35,1.76-2.39,3.39-4.68,4.92-6.83.77-1.07,1.48-2.13,2.22-3.09.75-.96,1.55-1.81,2.3-2.65,1.53-1.65,2.73-3.3,3.8-4.73,1.04-1.44,1.9-2.75,2.31-3.96.1-.3.16-.6.16-.9,0-.29-.07-.55-.14-.79-.14-.48-.47-.82-.8-.92-.28-.09-.51-.08-.67-.06.03-.02.05-.05.08-.07.16-.12.34-.18.5-.13.2.07.43.17.63.29.42.23.81.55,1.16.91.7.72,1.27,1.64,1.69,2.64.42,1,.6,2.05.68,3.08.08,1.03.05,2.03-.04,2.97-.09.95-.24,1.84-.41,2.67-.17.82-.41,1.58-.76,2.18-.35.6-.85,1.03-1.38,1.16-.52.13-1.01-.02-1.38-.15-.74-.29-1.1-.58-1.12-.55-.01.01.31.35,1.06.71.37.16.88.36,1.51.24.61-.13,1.2-.59,1.59-1.24.4-.64.66-1.43.85-2.27.19-.84.35-1.75.46-2.71.1-.96.14-1.99.07-3.05-.08-1.05-.26-2.16-.71-3.21-.43-1.05-1.03-2-1.79-2.78-.38-.38-.8-.72-1.26-.98-.24-.13-.46-.23-.73-.32-.32-.1-.66.04-.87.21-.43.35-.66.78-.88,1.2-.21.42-.38.83-.52,1.24-.29.81-.5,1.59-.67,2.3-.55,2.31-.65,3.95-.62,4.49-.61.76-1.27,1.54-2.01,2.32-.76.82-1.57,1.68-2.34,2.65-.76.98-1.47,2.02-2.25,3.09-1.54,2.14-3.18,4.43-4.95,6.8s-3.66,4.84-5.72,7.31c-1.03,1.24-2.1,2.48-3.22,3.71-1.11,1.23-2.3,2.43-3.47,3.69-2.33,2.48-4.68,4.91-7.51,6.39-1.4.73-2.93,1.18-4.44,1.23-1.54.02-3.06-.03-4.53-.11-4.13-.23-7.93-.75-11.36-1.32-.02.12-.03.23-.05.35,3.43.59,7.24,1.13,11.38,1.38,1.49.09,3,.14,4.57.12Zm36.84-42.03c.19-.7.41-1.46.71-2.25.15-.39.32-.8.52-1.19.18-.33.38-.67.64-.92.16,0,.41-.02.7.09.3.11.58.42.71.88.06.22.11.48.11.75,0,.27-.07.55-.17.84-.41,1.17-1.29,2.44-2.34,3.87-.54.7-1.11,1.46-1.74,2.24.08-.61.27-2.16.85-4.31Z"/>
          </g>
        </g>
        <path class="cls-7" d="m150.81,325.85s-4.58-.52-11.48.69c0,0,.18,1.42.51,3.64,2.01-.28,8.58-1.42,10.98-4.33Z"/>
        <path class="cls-7" d="m148.05,373.77l-1.3-.35s-.19,1.94-.61,5.03c.72.29,1.76.69,2.96,1.07l3.17-7.99-4.23,2.25Z"/>
        <path class="cls-1" d="m152.02,370.32l-5.27,2.33s.52-3.19.52-5.09-1.12-8.63-3.63-17.7c-1.63-5.92-2.97-14.04-3.71-18.97l13.38-2.79s3.37,1.04,1.55-1.38c-1.81-2.42-3.02-2.42-3.02-2.42l-5.96.26-3.11-.61c2.25-2.16,12.43-12.26,12.43-12.26-8.03,6.91-16.06,12.35-16.06,12.35l-.26-4.58,1.47.09c6.91-9.24,17.18-17.7,17.18-17.7-3.71,2.16-18.48,15.46-18.48,15.46-.17-1.47.34-4.23.34-4.23l-3.11,3.63c.09,6.39,2.85,17.87,4.49,25.21,1.64,7.34,3.71,21.07,4.23,26.08.52,5.01-.86,24.52-6.39,38.51-5.53,13.99-20.55,27.63-20.55,27.63l1.29.17s9.5-8.46,17.1-20.9c.22-.36.44-.74.65-1.13,5.16-9.37,7.9-25.63,9.01-33.83.42-3.08.61-5.03.61-5.03l1.3.35,4.23-2.25-3.17,7.99c.41.13.84.26,1.29.38,1.56-7.42,6.12-15.8,6.12-15.8v-2.59c-2.33,4.92-3.54,8.2-3.54,8.2l-.95.6Zm-12.69-43.78c6.91-1.21,11.48-.69,11.48-.69-2.4,2.91-8.97,4.04-10.98,4.33-.33-2.22-.51-3.64-.51-3.64Z"/>
        <path class="cls-5" d="m149.07,379.6l1.31.34s0-.03,0-.04c-.44-.12-.87-.25-1.29-.38l-.03.08Z"/>
        <g>
          <path class="cls-5" d="m208.69,382.23l4.34-4.09,2.77-2.68.73-1.01c1.59-1.82,3.79-5.4,5.1-8.39,1.31-2.99.93-7.58.93-7.58,0,0-.74-4.19-3.01-4.85-2.27-.66-3.18,1.42-3.18,1.42-.76.27-2.05,2.35-2.05,2.35,0,0-1.02,1.99-1.55,3.13-.53,1.14-1.78,3.22-1.78,3.22-1.14,1.54-4.76,5.06-4.76,5.06l-7.92,6.25c-1.4,1.33-6.73,3.56-8.21,4.06-1.48.49-7.45.97-7.45.97,0,0-8.19.32-8.39.36-.21.04-9.61.66-9.61.66,0,0-6.82-.11-10.76-.51-1.14-.11-2.34-.38-3.49-.69,0,.01,0,.03,0,.04l-1.31-.34.03-.08c-1.2-.38-2.24-.78-2.96-1.07-1.11,8.2-3.86,24.46-9.01,33.83l2.09-.18s3.15-.35,10.09-.25c6.94.1,8.92.86,8.92.86.87.14,2.37,1.03,2.37,1.03l.54.91s1.21,1.52,2.96,3.6c1.75,2.09,5.52,4.88,7.04,6.33,1.52,1.45,7.78,3.3,7.78,3.3,0,0,3.91.91,7.41,3.27,3.5,2.36,7.59,1.08,7.59,1.08,0,0,4.35-1.22,6.08-3.2,1.73-1.98,2.07-4.99,2.07-4.99l.11-1.04s3.98-.97,5.49-2.74c1.51-1.77.74-5.6.74-5.6l-.27-1.17c1.31.24,3.44-1.08,3.44-1.08,1.08-.72,2.56-2.99,3.02-3.72.46-.73.87-3.53.75-3.9-.12-.36-.44-.84-.44-.84,0,0,.06.12,1.69-.11,1.62-.23,3.2-1.6,3.62-1.95.43-.36.91-2.36.91-2.68s.06-1.98.06-1.98c0,0,.11-.75.06-1.86-.04-1.12-.46-3-.65-3.38-.19-.38-2.04-2.08-3.18-2.71-1.14-.63-3.62-1.6-3.62-1.6l-3.72-1.41-3.95-1.07-.73-.28-.04-.08.23-.14,3.09-2.45Z"/>
          <path class="cls-1" d="m222.71,358.28c-.34-1.53-.96-2.97-2.01-4.03-.52-.52-1.2-.9-1.92-.99-.35-.05-.73-.03-1.07.1-.34.12-.63.35-.86.6-.31.36-.52.75-.7,1.13-.37.27-1.22,1.02-2.05,2.52-.56.97-1.1,2.24-1.79,3.65-.67,1.42-1.75,2.87-3.07,4.34-1.33,1.47-2.95,2.93-4.76,4.41-1.82,1.48-3.76,3.05-5.92,4.56-2.15,1.5-4.52,2.95-7.2,3.9-2.68.95-5.65,1.24-8.67,1.4-1.52.08-3.02.12-4.5.17-1.48.05-2.94.15-4.38.24-2.87.19-5.62.41-8.25.53-5.25.26-10.02.07-13.91-.76-2.52-.51-4.64-1.28-6.34-2.07v.26c1.67.81,3.77,1.59,6.27,2.13,3.92.88,8.72,1.1,13.99.87,2.64-.11,5.4-.31,8.26-.5,1.43-.09,2.89-.18,4.36-.23,1.48-.05,2.98-.09,4.51-.17,3.04-.16,6.05-.45,8.8-1.43,2.74-.99,5.13-2.47,7.29-3.98,2.16-1.53,4.11-3.12,5.92-4.61,1.81-1.5,3.43-2.99,4.76-4.49,1.32-1.5,2.4-3,3.06-4.45.68-1.44,1.19-2.7,1.72-3.68.73-1.39,1.46-2.14,1.83-2.49-.06.12-.11.25-.17.37l-.68,1.54c-.42.98-.81,1.86-1.21,2.6-.4.74-.8,1.35-1.16,1.82-.37.48-.62.86-.83,1.09-.21.23-.34.32-.33.34,0,.01.17-.05.4-.27.24-.21.53-.59.91-1.04.39-.46.82-1.06,1.25-1.8.43-.74.85-1.62,1.28-2.59l.7-1.52c.25-.52.5-1.08.89-1.51.38-.45.96-.65,1.58-.55.62.09,1.2.41,1.67.89.95.96,1.55,2.36,1.86,3.81.3,1.47.28,3.06,0,4.64-.59,3.17-2.07,5.95-3.62,8.27-.39.58-.79,1.14-1.19,1.67-.41.53-.79,1.05-1.22,1.47-.86.87-1.94,1.38-2.97,1.34-1.03-.03-1.9-.49-2.57-.98-.67-.5-1.16-1.03-1.54-1.49-.75-.92-1.06-1.51-1.09-1.49-.02,0,.23.63.95,1.6.36.48.84,1.05,1.53,1.59.67.52,1.58,1.05,2.71,1.1.93.06,1.9-.31,2.73-.94-.91.77-3.78,3.54-7.31,6.69-1.07.94-2.08,1.8-3.09,2.51-.99.76-1.79,1.56-2.4,2.27-1.22,1.43-1.87,2.72-1.82,2.75.06.04.8-1.17,2.06-2.52.63-.67,1.43-1.43,2.42-2.14,1.02-.69,2.08-1.57,3.14-2.51,4.07-3.64,7.16-6.99,7.34-7.34.06-.05.12-.1.18-.16.47-.45.87-.98,1.28-1.5.41-.53.82-1.09,1.22-1.68,1.58-2.34,3.11-5.16,3.72-8.43.3-1.63.31-3.28,0-4.82Z"/>
        </g>
        <path class="cls-1" d="m217.9,389.36c-.92-.56-1.86-1-2.75-1.38-.9-.39-1.77-.72-2.57-1.03-.8-.31-1.57-.62-2.29-.8-1.44-.37-2.6-.58-3.39-.8-.79-.21-1.47-.48-1.49-.44-.01.02.65.35,1.43.62.78.28,1.95.54,3.36.95.71.2,1.43.51,2.24.84.8.33,1.66.67,2.54,1.07.88.39,1.8.84,2.69,1.38.88.54,1.76,1.2,2.42,2.05.66.86.93,1.9.96,2.93.04,1.03-.09,2.05-.12,3.03-.03.48,0,1,0,1.43,0,.44-.07.87-.2,1.26-.24.79-.73,1.43-1.26,1.9-1.09.93-2.28,1.25-3.07,1.41-.62.12-1.03.15-1.19.18-.34-.56-.8-1.02-1.27-1.42-1.17-.96-2.47-1.65-3.76-2.27-1.29-.61-2.59-1.12-3.88-1.57-1.28-.44-2.57-.84-3.82-1.1-1.2-.34-2.35-.86-3.27-1.57-.25-.19-.39-.34-.47-.61-.08-.25-.1-.53-.1-.81.01-.55.14-1.1.31-1.62.36-1.03.93-1.94,1.59-2.7.6-.8,1.59-1.03,2.47-1.19.9-.15,1.77-.17,2.58-.17,1.62.01,3.02.15,4.15.28,2.27.27,3.52.52,3.52.48,0-.03-1.23-.34-3.5-.66-1.14-.16-2.54-.32-4.17-.36-.82-.01-1.7,0-2.62.14-.46.07-.94.17-1.41.36-.23.09-.47.21-.69.36-.23.15-.41.36-.58.55-.69.78-1.3,1.72-1.68,2.8-.19.54-.33,1.12-.35,1.73,0,.3.01.62.11.93.05.16.12.31.23.46.12.15.24.24.36.34.98.77,2.15,1.31,3.41,1.67,1.27.27,2.5.67,3.78,1.11,1.27.45,2.56.96,3.83,1.57,1.27.61,2.54,1.3,3.65,2.21.54.46,1.06.99,1.35,1.62.14.31.21.65.17.98-.04.37-.1.73-.18,1.1-.32,1.45-.95,2.87-1.89,4.07-.93,1.2-2.19,2.14-3.62,2.46-.71.16-1.45.17-2.16.04-.36-.07-.7-.15-1.03-.29-.34-.14-.67-.29-1.01-.44-2.66-1.24-5.19-2.55-7.58-3.82-2.37-1.29-4.65-2.52-6.6-3.89-.48-.35-.9-.73-1.18-1.21-.28-.47-.44-1.01-.48-1.54-.09-1.07.21-2.12.67-3,.44-.9,1.16-1.55,1.96-1.99.79-.43,1.62-.71,2.39-.96.76-.23,1.52-.41,2.17-.32.64.15,1.22.47,1.73.71,2.04,1.04,3.13,1.69,3.15,1.65.01-.02-1.05-.72-3.07-1.81-.25-.13-.52-.27-.81-.41-.29-.13-.59-.29-.96-.36-.73-.12-1.5.06-2.29.28-.78.25-1.62.51-2.45.95-.41.22-.82.5-1.19.85-.37.35-.67.78-.92,1.24-.49.92-.83,2.02-.74,3.19.04.58.21,1.17.52,1.7.3.53.78.97,1.27,1.33,1.98,1.42,4.25,2.65,6.63,3.96,2.39,1.29,4.91,2.6,7.59,3.86.34.15.67.31,1.03.45.36.15.74.24,1.12.31.3.06.62.08.93.09.03.21.15.75.27,1.61.07.54.14,1.22.1,1.99-.04.77-.21,1.66-.73,2.46-.52.81-1.39,1.45-2.43,1.94-.52.25-1.07.47-1.65.68-.29.1-.59.22-.87.29-.29.07-.6.1-.92.1-1.26,0-2.58-.44-3.85-1.03-1.27-.6-2.53-1.38-3.74-2.26-.61-.44-1.19-.9-1.74-1.38-.28-.24-.54-.48-.8-.73-.13-.13-.25-.25-.36-.38-.12-.13-.17-.23-.29-.42-.45-.62-.98-1.08-1.5-1.55-.52-.46-1.04-.89-1.56-1.3-.52-.41-1.03-.8-1.53-1.17-.47-.34-.79-.82-.92-1.35-.26-1.08,0-2.17.24-3.11.27-.94.52-1.81.94-2.45.41-.64.98-1.03,1.49-1.19.51-.16.95-.14,1.23-.12.29.03.44.07.44.06,0-.01-.13-.09-.43-.15-.29-.06-.74-.11-1.3.04-.56.14-1.19.54-1.66,1.22-.48.67-.75,1.55-1.05,2.5-.14.48-.27,1-.35,1.54-.07.55-.1,1.14.05,1.75.11.48.38.95.75,1.32-.1.08-.34.29-.65.64-.41.48-.98,1.2-1.49,2.22-.5,1-.97,2.36-.76,3.91.11.76.4,1.54.87,2.23l1.47,2.02c.99,1.38,1.97,2.71,3.08,3.74,1.1,1.03,2.33,1.7,3.41,2.05,1.08.35,2,.45,2.63.49.63.04.98,0,.98-.02,0-.04-.34-.07-.96-.16-.61-.09-1.5-.24-2.54-.62-1.03-.38-2.18-1.04-3.22-2.05-1.05-1-2-2.31-2.99-3.69-.49-.69-1-1.37-1.47-2-.44-.64-.72-1.34-.83-2.04-.22-1.41.19-2.71.63-3.7.46-1,.97-1.74,1.33-2.25.28-.38.47-.62.54-.73.09.08.17.17.27.24.49.38,1,.77,1.51,1.18.51.41,1.02.84,1.53,1.29.5.45,1.03.93,1.41,1.47.07.11.19.33.32.46.12.14.25.28.38.41.26.26.54.51.82.75.56.49,1.16.96,1.77,1.41,1.24.9,2.51,1.68,3.82,2.29,1.31.6,2.68,1.06,4.05,1.04.34,0,.68-.04,1.01-.13.33-.08.63-.21.92-.31.59-.22,1.15-.45,1.68-.72,1.06-.52,1.99-1.23,2.53-2.12.55-.88.7-1.84.72-2.63.02-.8-.08-1.48-.18-2.03-.16-.84-.32-1.37-.4-1.57.46,0,.92-.03,1.37-.13,1.56-.35,2.92-1.37,3.89-2.63.98-1.27,1.64-2.75,1.97-4.26.08-.38.15-.76.19-1.15.04-.42-.04-.85-.21-1.22-.05-.11-.12-.21-.18-.32.17.02.58.03,1.19-.04.81-.11,2.05-.38,3.25-1.34.58-.48,1.13-1.17,1.42-2.03.14-.43.22-.9.24-1.38,0-.49-.02-.93.01-1.42.05-.96.19-1.98.15-3.07-.02-1.08-.33-2.26-1.05-3.2-.72-.94-1.64-1.61-2.55-2.17Z"/>
        <path class="cls-1" d="m201.65,425.61c-.23.7-.55,1.54-1.11,2.42-.55.87-1.35,1.78-2.49,2.41-1.13.65-2.48,1.18-3.98,1.53-1.49.34-3.16.5-4.85.22-.84-.15-1.68-.42-2.4-.93-.77-.52-1.59-1-2.44-1.43-1.71-.88-3.56-1.6-5.48-2.26-.96-.33-1.91-.64-2.85-.94-.95-.29-1.84-.59-2.68-1.02-1.69-.83-3.16-1.92-4.49-3.04-1.33-1.12-2.51-2.29-3.59-3.4-1.07-1.12-2.07-2.18-2.89-3.2-.83-1.02-1.5-2.01-1.97-2.94-.47-.93-.73-1.79-.81-2.52-.08-.73,0-1.3.1-1.67.09-.38.18-.56.16-.57-.01,0-.12.17-.25.54-.12.37-.25.96-.19,1.71.05.75.3,1.66.76,2.62.08.16.16.32.25.49-.13-.13-.44-.38-.99-.63-.75-.35-1.91-.67-3.37-.89-2.91-.46-6.97-.57-11.44-.44-2.89.1-5.6.26-7.94.45l-.23.43c2.4-.15,5.2-.31,8.19-.41,4.45-.14,8.49-.08,11.38.29,1.44.18,2.59.45,3.35.73.66.25,1.01.5,1.11.54.43.79.98,1.61,1.65,2.46.82,1.05,1.81,2.12,2.87,3.26,1.07,1.13,2.25,2.32,3.59,3.46,1.34,1.14,2.84,2.26,4.57,3.12.86.44,1.81.76,2.74,1.05.94.3,1.88.61,2.83.94,1.9.66,3.74,1.37,5.42,2.23.84.43,1.65.89,2.4,1.39.78.55,1.7.84,2.58.99,1.78.28,3.49.09,5.01-.27,1.53-.37,2.91-.93,4.06-1.62,1.18-.68,2-1.65,2.54-2.56.55-.92.86-1.79,1.06-2.5.39-1.44.38-2.66.36-2.66-.04,0-.1,1.2-.53,2.6Z"/>
        <path class="cls-1" d="m164.08,389.39s-.2.36-.39,1.08c-.18.71-.4,1.78-.25,3.12.14,1.33.77,2.9,2.03,4.17,1.24,1.28,2.96,2.26,4.84,2.97,1.89.71,3.77,1.13,5.49,1.41,1.72.28,3.28.42,4.59.49,2.62.13,4.25,0,4.25-.05,0-.07-1.62-.06-4.22-.28-1.3-.11-2.84-.28-4.54-.58-1.69-.3-3.54-.73-5.39-1.43-1.84-.7-3.51-1.63-4.7-2.84-1.21-1.19-1.83-2.64-2.01-3.91-.19-1.27-.03-2.33.1-3.04.13-.71.24-1.11.21-1.12Z"/>
        <path class="cls-1" d="m193.93,269.52l.41,3.67c.07.61-1.17,2.25-1.45,2.79-1.1,2.21-2.12,4.45-3.07,6.73-6.47,15.5-10.71,31.83-13.85,48.3-2.44,12.82-4.55,25.86-4.04,38.95.14,3.53.44,7.04.91,10.54l-.75.19s-8.5-33.2,20.81-111.51l1.02.34Z"/>
        <path class="cls-5" d="m171.74,426.56s5.75,15.34,3.2,21.65c-2.56,6.3-10.05,10.44-10.05,10.44,0,0,10.59-2.68,13.24-9.98,2.65-7.31-6.39-22.1-6.39-22.1Z"/>
        <path class="cls-5" d="m146.26,458.65s6.58-4.32,8.86-8.07l4.93-.82s-4.29,6.21-6.58,8.13c0,0,2.28-3.29,2.28-6.3,0,0-4.66,5.35-9.5,7.06Z"/>
        <path class="cls-1" d="m156.91,344.46s-.85-.4-1.42,0c-.57.4-2.11,3.08-5.35,4.04,0,0-4.1-8.43-.4-14.52,0,0-5.41,4.96-4.5,8.26.91,3.3,5.3,11.62,11.62,18.56l-.17-1.2s-4.9-7.17-6.21-10.25c0,0,4.78-1.37,6.61-3.07l-.17-1.82Z"/>
        <g>
          <path class="cls-1" d="m212.12,228.71c-3.76.9-7.53,1.93-11.18,3.19-1.3.1.57,3.08,1.03,3.42,1.44,1.06,3.23.09,4.34-.99,1.54-1.51,3.42-2.64,5.46-3.54.48-.92.73-1.65.85-2.18-.17.04-.33.08-.5.12Z"/>
          <path class="cls-1" d="m245.44,225.47c-1.01-.11-2.02-.18-3.04-.23.45.54,1,1.14,1.61,1.74,1.15.21,2.25.51,3.39,1.06,1.17.57,3.55,1.8,4.23-.05.95-2.59-4.75-2.36-6.19-2.52Z"/>
          <path class="cls-4" d="m242.4,225.25c-2.17-.09-4.37-.06-6.52-.01-7.82.16-15.66,1.57-23.26,3.36-.12.53-.37,1.26-.85,2.18,3.47-1.54,7.4-2.38,10.85-3.18,6.14-1.42,12.54-1.77,18.8-.98.91.12,1.76.22,2.6.37-.61-.6-1.16-1.2-1.61-1.74Z"/>
        </g>
      </g>
    </g>
  </g>
</svg>