<?xml version="1.0" encoding="UTF-8"?>
<svg id="Calque_2" data-name="Calque 2" xmlns="http://www.w3.org/2000/svg" viewBox="0 0 340.08 144.12">
  <defs>
    <style>
      .cls-1, .cls-2 {
        stroke-width: 0px;
      }

      .cls-2 {
        fill: #d30202;
      }
    </style>
  </defs>
  <g id="Calque_1-2" data-name="Calque 1">
    <g>
      <path class="cls-1" d="m3.74,48.75h24.63v3.19H0V0h3.74v48.75Z"/>
      <path class="cls-1" d="m28.67,0v10.72l-.33,5.62c-.05.42-.16.74-.33.97-.17.23-.47.35-.88.35-.34,0-.61-.12-.81-.35-.2-.23-.32-.56-.37-.97l-.33-5.62V0h3.05Z"/>
      <path class="cls-1" d="m75.85,51.95h-2.9c-.34,0-.62-.09-.84-.28-.22-.18-.39-.42-.51-.72l-6.13-15.09h-25.52l-6.09,15.09c-.1.27-.27.5-.51.7-.24.2-.54.29-.88.29h-2.86L50.85,0h3.74l21.26,51.95Zm-34.77-18.87h23.28l-10.61-26.25c-.17-.42-.34-.89-.51-1.41-.17-.53-.34-1.08-.51-1.67-.17.59-.34,1.15-.51,1.67-.17.53-.34,1.01-.51,1.45l-10.61,26.21Z"/>
      <path class="cls-1" d="m82.31,51.95V15.42h1.84c.42,0,.72.09.9.26.18.17.29.47.31.88l.29,7.71c1.17-2.96,2.74-5.28,4.7-6.96,1.96-1.68,4.37-2.51,7.23-2.51,1.1,0,2.12.12,3.05.35.93.23,1.81.57,2.64,1.01l-.48,2.42c-.07.39-.32.59-.73.59-.15,0-.35-.05-.62-.15-.27-.1-.61-.21-1.01-.33-.4-.12-.9-.23-1.49-.33-.59-.1-1.26-.15-2.02-.15-2.77,0-5.04.86-6.81,2.57-1.77,1.71-3.21,4.18-4.31,7.42v23.75h-3.49Z"/>
      <path class="cls-1" d="m121.4,52.53c-2.47,0-4.39-.68-5.76-2.06-1.37-1.37-2.06-3.49-2.06-6.35v-24.96h-5.25c-.27,0-.49-.07-.66-.22-.17-.15-.26-.35-.26-.62v-1.36l6.24-.44.87-13.07c.02-.22.12-.42.27-.59.16-.17.37-.26.64-.26h1.63v13.95h11.49v2.61h-11.49v24.78c0,1,.13,1.87.39,2.59.26.72.61,1.32,1.06,1.78.45.47.99.81,1.6,1.03s1.27.33,1.98.33c.88,0,1.64-.13,2.28-.39.64-.26,1.19-.54,1.65-.84.46-.31.84-.59,1.14-.84.29-.26.53-.39.7-.39.19,0,.39.12.59.37l.95,1.54c-.93,1.03-2.11,1.85-3.54,2.48s-2.92.94-4.46.94Z"/>
    </g>
    <g>
      <path class="cls-2" d="m14.98,96.98h3.47c1.39,0,2.55-.19,3.47-.58.92-.39,1.71-1,2.37-1.84l21.97-27.81c.92-1.17,1.88-1.99,2.89-2.45,1.01-.46,2.29-.69,3.83-.69h12.78l-26.82,33.1c-.84,1.03-1.65,1.89-2.42,2.59-.77.7-1.6,1.27-2.48,1.71,1.21.44,2.3,1.07,3.28,1.87.97.81,1.92,1.84,2.84,3.08l27.64,37.28h-13.11c-1.76,0-3.08-.25-3.94-.74-.86-.5-1.59-1.22-2.17-2.18l-22.52-29.41c-.73-.95-1.56-1.64-2.48-2.07-.92-.42-2.22-.63-3.91-.63h-4.68v35.02H.17V63.56h14.81v33.43Z"/>
      <path class="cls-2" d="m120.05,143.24h-6.11c-1.29,0-2.3-.19-3.03-.58-.73-.39-1.29-1.17-1.65-2.34l-1.21-4.02c-1.43,1.29-2.84,2.41-4.21,3.39-1.38.97-2.8,1.79-4.27,2.45-1.47.66-3.03,1.16-4.68,1.49s-3.49.5-5.51.5c-2.39,0-4.59-.32-6.61-.97-2.02-.64-3.75-1.61-5.2-2.9-1.45-1.29-2.58-2.89-3.39-4.81-.81-1.92-1.21-4.14-1.21-6.69,0-2.14.56-4.25,1.68-6.33,1.12-2.08,2.98-3.96,5.59-5.64,2.61-1.68,6.08-3.07,10.41-4.17,4.33-1.1,9.71-1.66,16.13-1.66v-3.33c0-3.81-.8-6.63-2.4-8.46-1.6-1.83-3.92-2.75-6.97-2.75-2.2,0-4.04.26-5.51.77-1.47.51-2.74,1.09-3.83,1.74s-2.08,1.22-3,1.73c-.92.51-1.93.77-3.03.77-.92,0-1.71-.24-2.37-.72-.66-.48-1.19-1.06-1.6-1.76l-2.48-4.35c6.5-5.95,14.34-8.92,23.51-8.92,3.3,0,6.25.54,8.84,1.62,2.59,1.08,4.78,2.59,6.58,4.52,1.8,1.93,3.17,4.23,4.1,6.91.94,2.68,1.4,5.62,1.4,8.81v35.68Zm-26.43-8.48c1.39,0,2.68-.13,3.85-.38,1.17-.25,2.29-.63,3.33-1.14,1.05-.51,2.06-1.13,3.03-1.87.97-.74,1.95-1.62,2.95-2.63v-9.46c-3.96,0-7.28.25-9.94.75-2.66.5-4.8,1.14-6.42,1.91-1.62.78-2.76,1.68-3.44,2.72-.68,1.04-1.02,2.16-1.02,3.38,0,2.4.71,4.12,2.12,5.16,1.41,1.04,3.26,1.55,5.53,1.55Z"/>
      <path class="cls-2" d="m133.59,143.24V61.41h13.6v32.27c2.24-2.39,4.77-4.29,7.6-5.7,2.83-1.41,6.13-2.12,9.91-2.12,3.08,0,5.9.63,8.45,1.9s4.75,3.11,6.61,5.53,3.28,5.42,4.29,8.98c1.01,3.56,1.51,7.66,1.51,12.28,0,4.22-.57,8.13-1.71,11.73s-2.76,6.72-4.87,9.36c-2.11,2.64-4.66,4.71-7.65,6.19s-6.34,2.23-10.05,2.23c-1.73,0-3.3-.17-4.74-.52-1.43-.35-2.74-.84-3.91-1.46-1.18-.62-2.27-1.39-3.28-2.29-1.01-.9-1.97-1.9-2.89-3l-.61,3.8c-.22.96-.6,1.63-1.13,2.04-.53.4-1.26.61-2.18.61h-8.97Zm26.43-46.81c-2.83,0-5.24.6-7.24,1.79-2,1.19-3.86,2.87-5.59,5.04v25.33c1.54,1.91,3.22,3.24,5.04,3.99,1.82.75,3.79,1.13,5.92,1.13s3.91-.39,5.56-1.16,3.06-1.95,4.21-3.52c1.16-1.58,2.05-3.57,2.67-5.97.62-2.4.94-5.24.94-8.51s-.27-6.1-.8-8.4c-.53-2.29-1.29-4.16-2.28-5.59-.99-1.43-2.19-2.48-3.61-3.14-1.41-.66-3.02-.99-4.82-.99Z"/>
      <path class="cls-2" d="m208.65,86.74v35.9c0,3.45.8,6.12,2.4,8.01,1.6,1.89,3.99,2.84,7.19,2.84,2.35,0,4.55-.52,6.61-1.57s4-2.49,5.84-4.32v-40.86h13.6v56.5h-8.31c-1.76,0-2.92-.83-3.47-2.48l-.94-4.52c-1.18,1.17-2.39,2.25-3.63,3.22-1.25.97-2.58,1.8-3.99,2.48-1.41.68-2.94,1.21-4.57,1.6-1.63.39-3.39.58-5.26.58-3.08,0-5.81-.52-8.18-1.57-2.37-1.05-4.36-2.52-5.98-4.43-1.62-1.91-2.84-4.18-3.66-6.8-.83-2.62-1.24-5.52-1.24-8.67v-35.9h13.6Z"/>
      <path class="cls-2" d="m272.58,61.41v46.86h2.53c.92,0,1.63-.13,2.15-.39s1.07-.73,1.65-1.43l14.04-17.35c.62-.73,1.28-1.31,1.98-1.73.7-.42,1.61-.63,2.75-.63h12.44l-17.57,20.98c-.62.77-1.27,1.48-1.93,2.12-.66.64-1.38,1.2-2.15,1.68.77.55,1.45,1.19,2.04,1.93.59.73,1.17,1.52,1.76,2.37l18.83,27.42h-12.28c-1.07,0-1.96-.18-2.7-.55-.73-.37-1.4-.99-1.98-1.87l-14.37-21.42c-.55-.84-1.1-1.4-1.65-1.65-.55-.26-1.38-.39-2.48-.39h-3.08v25.88h-13.6V61.41h13.6Z"/>
      <rect class="cls-2" x="324.08" y="86.84" width="14" height="56"/>
      <path class="cls-2" d="m338.63,56.74c-.27-.78-.52-1.52-.69-2.16-1.7-6.3-3.96-6.49-4.21-6.49h0c-1.31,0-1.61,2.15-1.84,3.88l-.02.18c-.26,1.89-.42,1.89-1.17,1.89s-.91,0-1.17-1.89l-.02-.18c-.24-1.73-.53-3.88-1.84-3.88h0c-.25,0-2.51.18-4.21,6.49-.17.64-.43,1.38-.69,2.16-.74,2.16-1.58,4.61-1.44,6.85.09,1.42.86,2.83,1.92,4.78.28.52.57,1.05.89,1.65l.1.18c.24.46.49.93.77,1.33,1.65,2.33,3.78,3.72,5.71,3.72s4.06-1.39,5.71-3.72c.28-.4.53-.87.77-1.33l.1-.18c.31-.6.61-1.13.89-1.65,1.06-1.95,1.83-3.36,1.92-4.78.14-2.24-.7-4.69-1.44-6.85Z"/>
    </g>
  </g>
</svg>